<svg width="25" height="24" viewBox="0 0 25 24" fill="none" xmlns="http://www.w3.org/2000/svg">
<mask id="mask0_1_3843" style="mask-type:alpha" maskUnits="userSpaceOnUse" x="0" y="0" width="25" height="24">
<rect x="0.714294" width="24" height="24" fill="#D9D9D9"/>
</mask>
<g mask="url(#mask0_1_3843)">
<path d="M11.7143 11.15V8C11.7143 7.71667 11.8101 7.47917 12.0018 7.2875C12.1935 7.09583 12.431 7 12.7143 7C12.9976 7 13.2351 7.09583 13.4268 7.2875C13.6185 7.47917 13.7143 7.71667 13.7143 8V11.15L14.6143 10.275C14.7976 10.0917 15.0268 10 15.3018 10C15.5768 10 15.8143 10.1 16.0143 10.3C16.1976 10.4833 16.2893 10.7167 16.2893 11C16.2893 11.2833 16.1976 11.5167 16.0143 11.7L13.4143 14.3C13.2143 14.5 12.981 14.6 12.7143 14.6C12.4476 14.6 12.2143 14.5 12.0143 14.3L9.41429 11.7C9.23096 11.5167 9.13513 11.2875 9.12679 11.0125C9.11846 10.7375 9.21429 10.5 9.41429 10.3C9.59763 10.1167 9.82679 10.0208 10.1018 10.0125C10.3768 10.0042 10.6143 10.0917 10.8143 10.275L11.7143 11.15ZM7.71429 23C7.16429 23 6.69346 22.8042 6.30179 22.4125C5.91013 22.0208 5.71429 21.55 5.71429 21V3C5.71429 2.45 5.91013 1.97917 6.30179 1.5875C6.69346 1.19583 7.16429 1 7.71429 1H17.7143C18.2643 1 18.7351 1.19583 19.1268 1.5875C19.5185 1.97917 19.7143 2.45 19.7143 3V21C19.7143 21.55 19.5185 22.0208 19.1268 22.4125C18.7351 22.8042 18.2643 23 17.7143 23H7.71429ZM7.71429 18V21H17.7143V18H7.71429ZM7.71429 16H17.7143V6H7.71429V16ZM7.71429 4H17.7143V3H7.71429V4ZM11.2143 20H14.2143C14.3476 20 14.4643 19.95 14.5643 19.85C14.6643 19.75 14.7143 19.6333 14.7143 19.5C14.7143 19.3667 14.6643 19.25 14.5643 19.15C14.4643 19.05 14.3476 19 14.2143 19H11.2143C11.081 19 10.9643 19.05 10.8643 19.15C10.7643 19.25 10.7143 19.3667 10.7143 19.5C10.7143 19.6333 10.7643 19.75 10.8643 19.85C10.9643 19.95 11.081 20 11.2143 20Z" fill="#2F7EF3"/>
</g>
</svg>
