<svg width="11" height="12" viewBox="0 0 11 12" fill="none" xmlns="http://www.w3.org/2000/svg">
<path d="M0 5.50612C0 5.44181 0 5.37722 0 5.31291C0.0511023 5.19089 0.13522 5.09816 0.242593 5.02065C0.36432 4.93251 0.481739 4.83835 0.596575 4.74131C0.815626 4.55556 0.898596 4.32129 0.826823 4.04023C0.780889 3.85994 0.724906 3.68223 0.678397 3.50222C0.615812 3.26164 0.737825 3.05522 0.977546 2.99091C1.16416 2.94067 1.35335 2.89962 1.53737 2.84191C1.79403 2.76095 1.95366 2.58439 2.00189 2.31682C2.03289 2.14428 2.05787 1.97087 2.08199 1.79718C2.12333 1.50004 2.31453 1.35908 2.60909 1.41047C2.77474 1.43918 2.94039 1.46674 3.10633 1.49401C3.40376 1.54253 3.63142 1.43114 3.79592 1.18539C3.89554 1.03668 3.98598 0.882224 4.08474 0.732649C4.22771 0.515608 4.45336 0.467664 4.67155 0.607478C4.82515 0.70595 4.97415 0.812172 5.1286 0.909209C5.37292 1.06252 5.62211 1.06367 5.86729 0.911507C6.01629 0.819063 6.15984 0.718007 6.30625 0.621257C6.54597 0.46307 6.76847 0.507569 6.92407 0.747004C7.02341 0.900023 7.11442 1.05907 7.2192 1.20807C7.37883 1.43487 7.5996 1.53737 7.87837 1.49602C8.06239 1.46875 8.2447 1.43057 8.42872 1.4053C8.696 1.36884 8.87974 1.51526 8.9162 1.78168C8.94061 1.95882 8.96529 2.13595 8.99716 2.31194C9.04798 2.59272 9.21592 2.77157 9.48895 2.84937C9.66092 2.89847 9.83518 2.93866 10.0077 2.98603C10.2724 3.05866 10.3867 3.26279 10.3138 3.52949C10.2675 3.69859 10.2176 3.86654 10.1737 4.03621C10.0996 4.32187 10.1843 4.55843 10.4082 4.74504C10.5429 4.85729 10.683 4.96294 10.8199 5.07261C11.0344 5.24372 11.0591 5.47827 10.8845 5.69273C10.7783 5.82336 10.6706 5.95255 10.5627 6.08145C10.3663 6.31601 10.3382 6.5985 10.4834 6.87009C10.5627 7.01852 10.6405 7.16752 10.7174 7.31709C10.8371 7.54992 10.7662 7.77672 10.5337 7.89702C10.3715 7.98085 10.2067 8.05951 10.0439 8.14162C9.78867 8.27024 9.64685 8.53809 9.67498 8.82346C9.69135 8.99084 9.70226 9.15878 9.70829 9.32673C9.71805 9.59373 9.55441 9.76598 9.28626 9.77833C9.11114 9.78637 8.93601 9.79412 8.7606 9.80015C8.49303 9.80933 8.25618 9.97786 8.16058 10.2302C8.09741 10.3976 8.03627 10.5658 7.97225 10.7329C7.87291 10.9922 7.66247 11.086 7.40294 10.9867C7.22925 10.9201 7.05901 10.8437 6.88302 10.784C6.62779 10.6976 6.39468 10.7461 6.19859 10.9342C6.0694 11.0579 5.94739 11.1891 5.82107 11.316C5.61522 11.5227 5.38555 11.5238 5.182 11.3191C5.06085 11.1974 4.94142 11.0737 4.81969 10.9525C4.60725 10.7412 4.35834 10.6924 4.07986 10.7958C3.91564 10.8566 3.7543 10.9264 3.59065 10.9887C3.33715 11.0852 3.12528 10.9904 3.02853 10.7378C2.96307 10.5675 2.90135 10.3956 2.83646 10.225C2.74287 9.97872 2.50487 9.80962 2.24362 9.80043C2.06476 9.79412 1.8859 9.78694 1.70733 9.77804C1.44579 9.76512 1.28158 9.59143 1.29076 9.3319C1.29679 9.16395 1.30713 8.99572 1.32407 8.82863C1.35306 8.53781 1.21296 8.27167 0.950847 8.13846C0.788066 8.05578 0.623563 7.97683 0.461069 7.89357C0.23886 7.77988 0.164791 7.55595 0.276469 7.33173C0.353123 7.17785 0.43322 7.02598 0.513893 6.8744C0.661745 6.59707 0.630453 6.31916 0.433795 6.07542C0.283646 5.89053 0.107372 5.72431 0 5.50612ZM5.50096 2.45491C3.58864 2.43682 1.93902 3.98367 1.94074 6.00595C1.94246 7.99549 3.52147 9.55612 5.48747 9.56272C7.47902 9.56933 9.05429 7.99233 9.05802 6.00853C9.06204 3.9874 7.4084 2.43309 5.50096 2.45491Z" fill="#2F7EF3"/>
<path d="M5.50102 2.45494C7.40846 2.43312 9.0621 3.98743 9.05808 6.00856C9.05435 7.99207 7.47879 9.56907 5.48753 9.56275C3.52181 9.55643 1.94252 7.99581 1.9408 6.00597C1.93907 3.9837 3.58842 2.43714 5.50102 2.45494ZM7.50406 5.06661C7.50205 5.03302 7.47908 5.01895 7.46185 5.00173C7.34845 4.88747 7.23017 4.77722 7.12194 4.65837C7.06165 4.59234 7.02749 4.59348 6.96375 4.65779C6.30315 5.32356 5.63825 5.98502 4.97708 6.6505C4.92023 6.70791 4.89066 6.70763 4.83468 6.65021C4.56682 6.37632 4.29294 6.10847 4.02451 5.83515C3.97168 5.78147 3.93982 5.78089 3.88843 5.83573C3.77847 5.95315 3.66449 6.06741 3.54679 6.17737C3.49109 6.22933 3.49482 6.26091 3.54765 6.31316C3.98001 6.7415 4.41036 7.17185 4.83841 7.60421C4.89181 7.65819 4.92167 7.65646 4.97421 7.60364C5.80046 6.77423 6.62843 5.94683 7.45611 5.11915C7.4742 5.10135 7.48999 5.0824 7.50406 5.06661Z" fill="#2F7EF3"/>
<path d="M7.5041 5.06658C7.48975 5.08237 7.47396 5.10132 7.45645 5.11883C6.62876 5.94681 5.80079 6.7742 4.97454 7.60332C4.922 7.65615 4.89214 7.65787 4.83874 7.6039C4.4104 7.17154 3.98005 6.74119 3.54798 6.31285C3.49516 6.26031 3.49142 6.22902 3.54712 6.17705C3.66483 6.0671 3.7788 5.95283 3.88876 5.83541C3.94015 5.78058 3.97201 5.78115 4.02484 5.83484C4.29327 6.10815 4.56715 6.37601 4.83501 6.64989C4.89099 6.70731 4.92056 6.7076 4.97741 6.65018C5.63858 5.9847 6.30348 5.32324 6.96408 4.65748C7.02782 4.59317 7.06198 4.59202 7.12227 4.65805C7.2305 4.77719 7.34878 4.88715 7.46219 5.00141C7.47912 5.01893 7.50209 5.03299 7.5041 5.06658Z" fill="white"/>
</svg>
