<svg width="25" height="24" viewBox="0 0 25 24" fill="none" xmlns="http://www.w3.org/2000/svg">
<mask id="mask0_1_3859" style="mask-type:alpha" maskUnits="userSpaceOnUse" x="0" y="0" width="25" height="24">
<rect x="0.714355" width="24" height="24" fill="#D9D9D9"/>
</mask>
<g mask="url(#mask0_1_3859)">
<path d="M8.21436 22C7.24769 22 6.42269 21.6583 5.73936 20.975C5.05602 20.2917 4.71436 19.4667 4.71436 18.5V5.5C4.71436 4.53333 5.05602 3.70833 5.73936 3.025C6.42269 2.34167 7.24769 2 8.21436 2H18.7144C19.2644 2 19.7352 2.19583 20.1269 2.5875C20.5185 2.97917 20.7144 3.45 20.7144 4V16.025C20.7144 16.2917 20.6477 16.5333 20.5144 16.75C20.381 16.9667 20.1977 17.1333 19.9644 17.25C19.731 17.3667 19.5477 17.5375 19.4144 17.7625C19.281 17.9875 19.2144 18.2333 19.2144 18.5C19.2144 18.7667 19.281 19.0167 19.4144 19.25C19.5477 19.4833 19.731 19.65 19.9644 19.75C20.181 19.8333 20.3602 19.9583 20.5019 20.125C20.6435 20.2917 20.7144 20.4917 20.7144 20.725V20.975C20.7144 21.2583 20.6185 21.5 20.4269 21.7C20.2352 21.9 19.9977 22 19.7144 22H8.21436ZM6.71436 15.325C6.94769 15.2083 7.18936 15.125 7.43936 15.075C7.68936 15.025 7.94769 15 8.21436 15H18.7144V4H8.21436C7.79769 4 7.44352 4.14583 7.15186 4.4375C6.86019 4.72917 6.71436 5.08333 6.71436 5.5V15.325ZM11.2894 11.225H14.1144L14.6144 12.625C14.6477 12.7417 14.7102 12.8333 14.8019 12.9C14.8935 12.9667 15.006 13 15.1394 13C15.3394 13 15.4977 12.9167 15.6144 12.75C15.731 12.5833 15.7477 12.4083 15.6644 12.225L13.4644 6.375C13.431 6.25833 13.3644 6.16667 13.2644 6.1C13.1644 6.03333 13.0477 6 12.9144 6H12.4644C12.331 6 12.2144 6.03333 12.1144 6.1C12.0144 6.16667 11.9477 6.25833 11.9144 6.375L9.71436 12.25C9.63102 12.4333 9.65186 12.6042 9.77686 12.7625C9.90186 12.9208 10.0644 13 10.2644 13C10.3977 13 10.5102 12.9667 10.6019 12.9C10.6935 12.8333 10.756 12.7417 10.7894 12.625L11.2894 11.225ZM11.6394 10.2L12.6644 7.3H12.7394L13.7644 10.2H11.6394ZM8.21436 20H17.5394C17.4394 19.7667 17.3602 19.5292 17.3019 19.2875C17.2435 19.0458 17.2144 18.7833 17.2144 18.5C17.2144 18.2333 17.2394 17.975 17.2894 17.725C17.3394 17.475 17.4227 17.2333 17.5394 17H8.21436C7.78102 17 7.42269 17.1458 7.13936 17.4375C6.85602 17.7292 6.71436 18.0833 6.71436 18.5C6.71436 18.9333 6.85602 19.2917 7.13936 19.575C7.42269 19.8583 7.78102 20 8.21436 20Z" fill="#2F7EF3"/>
</g>
</svg>
