<svg width="25" height="24" viewBox="0 0 25 24" fill="none" xmlns="http://www.w3.org/2000/svg">
<mask id="mask0_1_3835" style="mask-type:alpha" maskUnits="userSpaceOnUse" x="0" y="0" width="25" height="24">
<rect x="0.714294" width="24" height="24" fill="#D9D9D9"/>
</mask>
<g mask="url(#mask0_1_3835)">
<path d="M4.71429 20V11C4.16429 11 3.69346 10.8042 3.30179 10.4125C2.91013 10.0208 2.71429 9.55 2.71429 9V7C2.71429 6.45 2.91013 5.97917 3.30179 5.5875C3.69346 5.19583 4.16429 5 4.71429 5H7.91429C7.83096 4.85 7.77679 4.69167 7.75179 4.525C7.72679 4.35833 7.71429 4.18333 7.71429 4C7.71429 3.16667 8.00596 2.45833 8.58929 1.875C9.17263 1.29167 9.88096 1 10.7143 1C11.0976 1 11.456 1.07083 11.7893 1.2125C12.1226 1.35417 12.431 1.55 12.7143 1.8C12.9976 1.53333 13.306 1.33333 13.6393 1.2C13.9726 1.06667 14.331 1 14.7143 1C15.5476 1 16.256 1.29167 16.8393 1.875C17.4226 2.45833 17.7143 3.16667 17.7143 4C17.7143 4.18333 17.6976 4.35417 17.6643 4.5125C17.631 4.67083 17.581 4.83333 17.5143 5H20.7143C21.2643 5 21.7351 5.19583 22.1268 5.5875C22.5185 5.97917 22.7143 6.45 22.7143 7V9C22.7143 9.55 22.5185 10.0208 22.1268 10.4125C21.7351 10.8042 21.2643 11 20.7143 11V20C20.7143 20.55 20.5185 21.0208 20.1268 21.4125C19.7351 21.8042 19.2643 22 18.7143 22H6.71429C6.16429 22 5.69346 21.8042 5.30179 21.4125C4.91013 21.0208 4.71429 20.55 4.71429 20ZM14.7143 3C14.431 3 14.1935 3.09583 14.0018 3.2875C13.8101 3.47917 13.7143 3.71667 13.7143 4C13.7143 4.28333 13.8101 4.52083 14.0018 4.7125C14.1935 4.90417 14.431 5 14.7143 5C14.9976 5 15.2351 4.90417 15.4268 4.7125C15.6185 4.52083 15.7143 4.28333 15.7143 4C15.7143 3.71667 15.6185 3.47917 15.4268 3.2875C15.2351 3.09583 14.9976 3 14.7143 3ZM9.71429 4C9.71429 4.28333 9.81013 4.52083 10.0018 4.7125C10.1935 4.90417 10.431 5 10.7143 5C10.9976 5 11.2351 4.90417 11.4268 4.7125C11.6185 4.52083 11.7143 4.28333 11.7143 4C11.7143 3.71667 11.6185 3.47917 11.4268 3.2875C11.2351 3.09583 10.9976 3 10.7143 3C10.431 3 10.1935 3.09583 10.0018 3.2875C9.81013 3.47917 9.71429 3.71667 9.71429 4ZM4.71429 7V9H11.7143V7H4.71429ZM11.7143 20V11H6.71429V20H11.7143ZM13.7143 20H18.7143V11H13.7143V20ZM20.7143 9V7H13.7143V9H20.7143Z" fill="#2F7EF3"/>
</g>
</svg>
