<svg width="24" height="24" viewBox="0 0 24 24" fill="none" xmlns="http://www.w3.org/2000/svg">
<g clip-path="url(#clip0_1_4411)">
<g clip-path="url(#clip1_1_4411)">
<rect x="4" y="4" width="16" height="16" rx="8" fill="#10B700" fill-opacity="0.1"/>
</g>
<path d="M15.6036 8.85025L15.6035 8.85025C15.4637 8.85462 15.3326 8.91586 15.2373 9.0185L10.6691 13.8175L8.76466 11.8169C8.7164 11.7644 8.65831 11.7221 8.59354 11.6926C8.52824 11.663 8.45767 11.6472 8.38602 11.6464C8.31437 11.6457 8.24348 11.66 8.17758 11.6882C8.1117 11.7165 8.05236 11.758 8.00281 11.8101C7.95329 11.8621 7.91451 11.9236 7.88842 11.9908C7.86233 12.0579 7.84933 12.1296 7.85003 12.2017C7.85073 12.2738 7.86511 12.3453 7.89251 12.4119C7.91971 12.478 7.95929 12.5382 8.00931 12.589L10.2914 14.9864L10.2914 14.9864C10.3903 15.0902 10.5259 15.15 10.6691 15.15C10.8122 15.15 10.9479 15.0902 11.0467 14.9864L11.0467 14.9864L15.9927 9.79057C16.0683 9.713 16.1192 9.61419 16.1397 9.50741C16.1604 9.40028 16.1498 9.28902 16.109 9.18791C16.0683 9.08676 15.9989 8.99966 15.9088 8.93893C15.8186 8.87812 15.7122 8.84688 15.6036 8.85025Z" fill="#1DB954" stroke="#1DB954" stroke-width="0.3"/>
</g>
<defs>
<clipPath id="clip0_1_4411">
<rect width="16" height="16" fill="white" transform="translate(4 4)"/>
</clipPath>
<clipPath id="clip1_1_4411">
<rect width="16" height="16" fill="white" transform="translate(4 4)"/>
</clipPath>
</defs>
</svg>
