<svg width="30" height="29" viewBox="0 0 30 29" fill="none" xmlns="http://www.w3.org/2000/svg">
<path fill-rule="evenodd" clip-rule="evenodd" d="M1.91479 14.5C1.91479 7.49289 7.59518 1.8125 14.6023 1.8125C16.0868 1.8125 17.5099 2.06708 18.8315 2.53421L19.4355 0.825312C17.9226 0.290568 16.2954 0 14.6023 0C6.59417 0 0.102295 6.49187 0.102295 14.5C0.102295 22.5081 6.59417 29 14.6023 29C22.6104 29 29.1023 22.5081 29.1023 14.5C29.1023 12.6628 28.7602 10.9033 28.1353 9.28337L26.4443 9.93564C26.9901 11.3508 27.2898 12.8893 27.2898 14.5C27.2898 21.5071 21.6094 27.1875 14.6023 27.1875C7.59518 27.1875 1.91479 21.5071 1.91479 14.5ZM13.8102 11.8708C13.8102 12.8929 14.292 13.6427 15.2556 14.1203C14.7123 14.3591 14.292 14.6982 13.9947 15.1376C13.6975 15.5674 13.5488 16.0785 13.5488 16.6707C13.5488 17.3489 13.7333 17.9363 14.1024 18.4331C14.4714 18.9202 14.9686 19.2927 15.5939 19.5506C16.2295 19.8085 16.9317 19.9375 17.7006 19.9375C18.4694 19.9375 19.1665 19.8085 19.7918 19.5506C20.4274 19.2927 20.9297 18.9202 21.2987 18.4331C21.6678 17.9363 21.8523 17.3489 21.8523 16.6707C21.8523 16.088 21.7037 15.5818 21.4064 15.1519C21.1091 14.7125 20.6837 14.3687 20.1301 14.1203C20.5709 13.9006 20.9194 13.5997 21.1757 13.2176C21.4423 12.8356 21.5755 12.3866 21.5755 11.8708C21.5755 11.355 21.432 10.8869 21.145 10.4667C20.8579 10.0368 20.4223 9.69771 19.8379 9.44936C19.2639 9.19145 18.5514 9.0625 17.7006 9.0625C16.8497 9.0625 16.1321 9.19145 15.5478 9.44936C14.9635 9.69771 14.5278 10.0368 14.2408 10.4667C13.9537 10.8869 13.8102 11.355 13.8102 11.8708ZM18.6539 11.3407C18.9 11.5508 19.023 11.8517 19.023 12.2433C19.023 12.6159 18.9 12.912 18.6539 13.1317C18.4079 13.3514 18.0901 13.4612 17.7006 13.4612C17.311 13.4612 16.9932 13.3561 16.7472 13.146C16.5012 12.9263 16.3782 12.6302 16.3782 12.2577C16.3782 11.866 16.496 11.5604 16.7318 11.3407C16.9778 11.121 17.3008 11.0111 17.7006 11.0111C18.1004 11.0111 18.4181 11.121 18.6539 11.3407ZM16.5319 15.5531C16.8292 15.3048 17.2188 15.1806 17.7006 15.1806C18.1721 15.1806 18.5514 15.3048 18.8384 15.5531C19.1357 15.8015 19.2844 16.1358 19.2844 16.5561C19.2844 16.9573 19.1409 17.2868 18.8538 17.5447C18.577 17.8026 18.1926 17.9316 17.7006 17.9316C17.2085 17.9316 16.8138 17.8026 16.5165 17.5447C16.2295 17.2868 16.086 16.9573 16.086 16.5561C16.086 16.1262 16.2346 15.7919 16.5319 15.5531ZM7.35231 9.27742V11.5556H8.87461V19.7369H11.6117V9.27742H7.35231Z" fill="#515865"/>
<rect x="22.629" y="0.90625" width="2.07143" height="7.25" fill="#515865"/>
<rect x="27.2898" y="3.49554" width="2.07143" height="7.25" transform="rotate(90 27.2898 3.49554)" fill="#515865"/>
</svg>
