<svg width="24" height="24" viewBox="0 0 24 24" fill="none" xmlns="http://www.w3.org/2000/svg">
<g clip-path="url(#clip0_1_3872)">
<path d="M3.2 8.80005C1.4328 8.80005 0 10.2328 0 12C0 13.7672 1.4328 15.2 3.2 15.2C4.9672 15.2 6.4 13.7672 6.4 12C6.4 10.2328 4.9672 8.80005 3.2 8.80005ZM12 8.80005C10.2328 8.80005 8.8 10.2328 8.8 12C8.8 13.7672 10.2328 15.2 12 15.2C13.7672 15.2 15.2 13.7672 15.2 12C15.2 10.2328 13.7672 8.80005 12 8.80005ZM20.8 8.80005C19.0328 8.80005 17.6 10.2328 17.6 12C17.6 13.7672 19.0328 15.2 20.8 15.2C22.5672 15.2 24 13.7672 24 12C24 10.2328 22.5672 8.80005 20.8 8.80005Z" fill="#2F7EF3"/>
</g>
<defs>
<clipPath id="clip0_1_3872">
<rect width="24" height="24" fill="white"/>
</clipPath>
</defs>
</svg>
