<svg width="20" height="20" viewBox="0 0 20 20" fill="none" xmlns="http://www.w3.org/2000/svg">
<path d="M8.4375 1.875C7.23156 1.875 6.25 2.85625 6.25 4.0625C6.25 4.39831 6.32842 4.71538 6.46423 5H4.375C3.51344 5 2.8125 5.70094 2.8125 6.5625V7.8125C2.8125 8.45175 3.19894 9.00147 3.75 9.24316V13.75C3.75 15.1284 4.87156 16.25 6.25 16.25H13.75C15.1284 16.25 16.25 15.1284 16.25 13.75V9.24316C16.8011 9.00147 17.1875 8.45175 17.1875 7.8125V6.5625C17.1875 5.70094 16.4866 5 15.625 5H13.5358C13.6716 4.71538 13.75 4.39831 13.75 4.0625C13.75 2.85625 12.7684 1.875 11.5625 1.875C10.9506 1.875 10.3975 2.12823 10 2.53479C9.6025 2.12823 9.04938 1.875 8.4375 1.875ZM8.4375 3.125C8.95437 3.125 9.375 3.54562 9.375 4.0625V5H8.4375C7.92063 5 7.5 4.57938 7.5 4.0625C7.5 3.54562 7.92063 3.125 8.4375 3.125ZM11.5625 3.125C12.0794 3.125 12.5 3.54562 12.5 4.0625C12.5 4.57938 12.0794 5 11.5625 5H10.625V4.0625C10.625 3.54562 11.0456 3.125 11.5625 3.125ZM4.375 6.25H9.375V8.125H4.375C4.2025 8.125 4.0625 7.98469 4.0625 7.8125V6.5625C4.0625 6.39031 4.2025 6.25 4.375 6.25ZM10.625 6.25H15.625C15.7975 6.25 15.9375 6.39031 15.9375 6.5625V7.8125C15.9375 7.98469 15.7975 8.125 15.625 8.125H10.625V6.25ZM5 9.375H9.375V15H6.25C5.56063 15 5 14.4394 5 13.75V9.375ZM10.625 9.375H15V13.75C15 14.4394 14.4394 15 13.75 15H10.625V9.375Z" fill="#2F7EF3"/>
</svg>
