<svg width="25" height="24" viewBox="0 0 25 24" fill="none" xmlns="http://www.w3.org/2000/svg">
<mask id="mask0_1_3851" style="mask-type:alpha" maskUnits="userSpaceOnUse" x="0" y="0" width="25" height="24">
<rect x="0.714294" width="24" height="24" fill="#D9D9D9"/>
</mask>
<g mask="url(#mask0_1_3851)">
<path d="M12.7143 17C12.9976 17 13.2351 16.9042 13.4268 16.7125C13.6185 16.5208 13.7143 16.2833 13.7143 16V12C13.7143 11.7167 13.6185 11.4792 13.4268 11.2875C13.2351 11.0958 12.9976 11 12.7143 11C12.431 11 12.1935 11.0958 12.0018 11.2875C11.8101 11.4792 11.7143 11.7167 11.7143 12V16C11.7143 16.2833 11.8101 16.5208 12.0018 16.7125C12.1935 16.9042 12.431 17 12.7143 17ZM12.7143 9C12.9976 9 13.2351 8.90417 13.4268 8.7125C13.6185 8.52083 13.7143 8.28333 13.7143 8C13.7143 7.71667 13.6185 7.47917 13.4268 7.2875C13.2351 7.09583 12.9976 7 12.7143 7C12.431 7 12.1935 7.09583 12.0018 7.2875C11.8101 7.47917 11.7143 7.71667 11.7143 8C11.7143 8.28333 11.8101 8.52083 12.0018 8.7125C12.1935 8.90417 12.431 9 12.7143 9ZM12.7143 22C11.331 22 10.031 21.7375 8.81429 21.2125C7.59763 20.6875 6.53929 19.975 5.63929 19.075C4.73929 18.175 4.02679 17.1167 3.50179 15.9C2.97679 14.6833 2.71429 13.3833 2.71429 12C2.71429 10.6167 2.97679 9.31667 3.50179 8.1C4.02679 6.88333 4.73929 5.825 5.63929 4.925C6.53929 4.025 7.59763 3.3125 8.81429 2.7875C10.031 2.2625 11.331 2 12.7143 2C14.0976 2 15.3976 2.2625 16.6143 2.7875C17.831 3.3125 18.8893 4.025 19.7893 4.925C20.6893 5.825 21.4018 6.88333 21.9268 8.1C22.4518 9.31667 22.7143 10.6167 22.7143 12C22.7143 13.3833 22.4518 14.6833 21.9268 15.9C21.4018 17.1167 20.6893 18.175 19.7893 19.075C18.8893 19.975 17.831 20.6875 16.6143 21.2125C15.3976 21.7375 14.0976 22 12.7143 22ZM12.7143 20C14.9476 20 16.8393 19.225 18.3893 17.675C19.9393 16.125 20.7143 14.2333 20.7143 12C20.7143 9.76667 19.9393 7.875 18.3893 6.325C16.8393 4.775 14.9476 4 12.7143 4C10.481 4 8.58929 4.775 7.03929 6.325C5.48929 7.875 4.71429 9.76667 4.71429 12C4.71429 14.2333 5.48929 16.125 7.03929 17.675C8.58929 19.225 10.481 20 12.7143 20Z" fill="#2F7EF3"/>
</g>
</svg>
