<svg width="24" height="24" viewBox="0 0 24 24" fill="none" xmlns="http://www.w3.org/2000/svg">
<path d="M12.35 4C7.73852 4 4 7.73852 4 12.35C4 16.9615 7.73852 20.7 12.35 20.7C16.9615 20.7 20.7 16.9615 20.7 12.35C20.7 7.73852 16.9615 4 12.35 4ZM12.35 5.51818C16.1231 5.51818 19.1818 8.57694 19.1818 12.35C19.1818 16.1231 16.1231 19.1818 12.35 19.1818C8.57694 19.1818 5.51818 16.1231 5.51818 12.35C5.51818 8.57694 8.57694 5.51818 12.35 5.51818ZM9.31364 11.5909C8.89462 11.5909 8.55455 11.931 8.55455 12.35C8.55455 12.769 8.89462 13.1091 9.31364 13.1091H15.3864C15.8054 13.1091 16.1455 12.769 16.1455 12.35C16.1455 11.931 15.8054 11.5909 15.3864 11.5909H9.31364Z" fill="#2F7EF3"/>
</svg>
