<svg width="17" height="16" viewBox="0 0 17 16" fill="none" xmlns="http://www.w3.org/2000/svg">
<path d="M12.1666 13.3333L11.8956 13.7397C11.6486 14.1107 11.2323 14.3333 10.7863 14.3333H6.33329C4.58429 14.3333 3.16663 12.9157 3.16663 11.1667V4.71366C3.16663 4.26799 3.38929 3.85166 3.76029 3.60433L4.16663 3.33333V11.1667C4.16663 12.3633 5.13663 13.3333 6.33329 13.3333H12.1666Z" fill="#2F7EF3"/>
<path d="M12 12.6667H6.66671C5.65571 12.6667 4.83337 11.8443 4.83337 10.8333V3.50001C4.83337 2.48901 5.65571 1.66667 6.66671 1.66667H12C13.011 1.66667 13.8334 2.48901 13.8334 3.50001V10.8333C13.8334 11.8443 13.011 12.6667 12 12.6667Z" fill="#2F7EF3"/>
</svg>
