<svg width="16" height="16" viewBox="0 0 16 16" fill="none" xmlns="http://www.w3.org/2000/svg">
<mask id="mask0_301_393" style="mask-type:alpha" maskUnits="userSpaceOnUse" x="0" y="0" width="16" height="16">
<rect width="16" height="16" fill="#D9D9D9"/>
</mask>
<g mask="url(#mask0_301_393)">
<path d="M8.66671 7.73331V5.33331C8.66671 5.14442 8.60282 4.98609 8.47504 4.85831C8.34726 4.73053 8.18893 4.66665 8.00004 4.66665C7.81115 4.66665 7.65282 4.73053 7.52504 4.85831C7.39726 4.98609 7.33337 5.14442 7.33337 5.33331V7.98331C7.33337 8.0722 7.35004 8.15831 7.38337 8.24165C7.41671 8.32498 7.46671 8.39998 7.53337 8.46665L9.73337 10.6666C9.8556 10.7889 10.0112 10.85 10.2 10.85C10.3889 10.85 10.5445 10.7889 10.6667 10.6666C10.7889 10.5444 10.85 10.3889 10.85 10.2C10.85 10.0111 10.7889 9.85553 10.6667 9.73331L8.66671 7.73331ZM8.00004 14.6666C7.07782 14.6666 6.21115 14.4916 5.40004 14.1416C4.58893 13.7916 3.88337 13.3166 3.28337 12.7166C2.68337 12.1166 2.20837 11.4111 1.85837 10.6C1.50837 9.78887 1.33337 8.9222 1.33337 7.99998C1.33337 7.07776 1.50837 6.21109 1.85837 5.39998C2.20837 4.58887 2.68337 3.88331 3.28337 3.28331C3.88337 2.68331 4.58893 2.20831 5.40004 1.85831C6.21115 1.50831 7.07782 1.33331 8.00004 1.33331C8.92226 1.33331 9.78893 1.50831 10.6 1.85831C11.4112 2.20831 12.1167 2.68331 12.7167 3.28331C13.3167 3.88331 13.7917 4.58887 14.1417 5.39998C14.4917 6.21109 14.6667 7.07776 14.6667 7.99998C14.6667 8.9222 14.4917 9.78887 14.1417 10.6C13.7917 11.4111 13.3167 12.1166 12.7167 12.7166C12.1167 13.3166 11.4112 13.7916 10.6 14.1416C9.78893 14.4916 8.92226 14.6666 8.00004 14.6666Z" fill="#686E80"/>
</g>
</svg>
