<svg width="17" height="17" viewBox="0 0 17 17" fill="none" xmlns="http://www.w3.org/2000/svg">
<path d="M8.35 0C3.73852 0 0 3.73852 0 8.35C0 12.9615 3.73852 16.7 8.35 16.7C12.9615 16.7 16.7 12.9615 16.7 8.35C16.7 3.73852 12.9615 0 8.35 0ZM8.35 1.51818C12.1231 1.51818 15.1818 4.57694 15.1818 8.35C15.1818 12.1231 12.1231 15.1818 8.35 15.1818C4.57694 15.1818 1.51818 12.1231 1.51818 8.35C1.51818 4.57694 4.57694 1.51818 8.35 1.51818ZM8.35 4.93409C7.9306 4.93409 7.59091 5.27416 7.59091 5.69318V7.59091H5.69318C5.27416 7.59091 4.93409 7.9306 4.93409 8.35C4.93409 8.7694 5.27416 9.10909 5.69318 9.10909H7.59091V11.0068C7.59091 11.4258 7.9306 11.7659 8.35 11.7659C8.7694 11.7659 9.10909 11.4258 9.10909 11.0068V9.10909H11.0068C11.4258 9.10909 11.7659 8.7694 11.7659 8.35C11.7659 7.9306 11.4258 7.59091 11.0068 7.59091H9.10909V5.69318C9.10909 5.27416 8.7694 4.93409 8.35 4.93409Z" fill="#2F7EF3"/>
</svg>
