<svg aria-hidden="true" style="position: absolute; width: 0; height: 0; overflow: hidden;" version="1.1" xmlns="http://www.w3.org/2000/svg" xmlns:xlink="http://www.w3.org/1999/xlink">
<defs>
<symbol id="ArrowApp" viewBox="0 0 33 32">
<path fill="#2f7ef3" style="fill: var(--color1, #2f7ef3)" d="M16.923 15.094l4.848 4.749c0.216 0.212 0.562 0.21 0.778-0.004l0.849-0.849c0.216-0.218 0.216-0.568-0.002-0.784l-6.082-6.043c-0.108-0.108-0.248-0.162-0.391-0.162s-0.283 0.054-0.391 0.162l-6.082 6.043c-0.218 0.216-0.218 0.566-0.002 0.784l0.849 0.849c0.216 0.214 0.562 0.216 0.778 0.004l4.848-4.749z"></path>
</symbol>
<symbol id="ArrowDawn" viewBox="0 0 33 32">
<path fill="#2f7ef3" style="fill: var(--color1, #2f7ef3)" d="M16.923 16.906l4.848-4.749c0.216-0.212 0.562-0.21 0.778 0.004l0.849 0.849c0.216 0.218 0.216 0.568-0.002 0.784l-6.082 6.043c-0.108 0.108-0.248 0.162-0.391 0.162s-0.283-0.054-0.391-0.162l-6.082-6.043c-0.218-0.216-0.218-0.566-0.002-0.784l0.849-0.849c0.216-0.214 0.562-0.216 0.778-0.004l4.848 4.749z"></path>
</symbol>
<symbol id="app_promo" viewBox="0 0 33 32">
<path fill="#2f7ef3" style="fill: var(--color1, #2f7ef3)" d="M15.619 14.867v-4.2c0-0.378 0.128-0.694 0.383-0.95s0.572-0.383 0.95-0.383c0.378 0 0.694 0.128 0.95 0.383s0.383 0.572 0.383 0.95v4.2l1.2-1.167c0.244-0.244 0.55-0.367 0.917-0.367s0.683 0.133 0.95 0.4c0.244 0.244 0.367 0.556 0.367 0.933s-0.122 0.689-0.367 0.933l-3.467 3.467c-0.267 0.267-0.578 0.4-0.933 0.4s-0.667-0.133-0.933-0.4l-3.467-3.467c-0.244-0.244-0.372-0.55-0.383-0.917s0.117-0.683 0.383-0.95c0.244-0.244 0.55-0.372 0.917-0.383s0.683 0.106 0.95 0.35l1.2 1.167zM10.286 30.667c-0.733 0-1.361-0.261-1.883-0.783s-0.783-1.15-0.783-1.883v-24c0-0.733 0.261-1.361 0.783-1.883s1.15-0.783 1.883-0.783h13.333c0.733 0 1.361 0.261 1.883 0.783s0.783 1.15 0.783 1.883v24c0 0.733-0.261 1.361-0.783 1.883s-1.15 0.783-1.883 0.783h-13.333zM10.286 24v4h13.333v-4h-13.333zM10.286 21.333h13.333v-13.333h-13.333v13.333zM10.286 5.333h13.333v-1.333h-13.333v1.333zM14.952 26.667h4c0.178 0 0.333-0.067 0.467-0.2s0.2-0.289 0.2-0.467c0-0.178-0.067-0.333-0.2-0.467s-0.289-0.2-0.467-0.2h-4c-0.178 0-0.333 0.067-0.467 0.2s-0.2 0.289-0.2 0.467c0 0.178 0.067 0.333 0.2 0.467s0.289 0.2 0.467 0.2z"></path>
</symbol>
<symbol id="ArrowRight" viewBox="0 0 32 32">
<path fill="#686e80" style="fill: var(--color2, #686e80)" d="M16.9 16l-6.678-6.818c-0.298-0.304-0.295-0.79 0.006-1.094l1.194-1.194c0.307-0.304 0.799-0.304 1.103 0.003l8.498 8.553c0.152 0.152 0.228 0.349 0.228 0.55s-0.076 0.398-0.228 0.55l-8.498 8.553c-0.304 0.307-0.796 0.307-1.103 0.003l-1.194-1.194c-0.301-0.304-0.304-0.79-0.006-1.094l6.678-6.818z"></path>
</symbol>
<symbol id="book_3" viewBox="0 0 33 32">
<path fill="#2f7ef3" style="fill: var(--color1, #2f7ef3)" d="M10.952 29.333c-1.289 0-2.389-0.456-3.3-1.367s-1.367-2.011-1.367-3.3v-17.333c0-1.289 0.456-2.389 1.367-3.3s2.011-1.367 3.3-1.367h14c0.733 0 1.361 0.261 1.883 0.783s0.783 1.15 0.783 1.883v16.033c0 0.356-0.089 0.678-0.267 0.967s-0.422 0.511-0.733 0.667c-0.311 0.156-0.556 0.383-0.733 0.683s-0.267 0.628-0.267 0.983 0.089 0.689 0.267 1c0.178 0.311 0.422 0.533 0.733 0.667 0.289 0.111 0.528 0.278 0.717 0.5s0.283 0.489 0.283 0.8v0.333c0 0.378-0.128 0.7-0.383 0.967s-0.572 0.4-0.95 0.4h-15.333zM8.952 20.433c0.311-0.156 0.633-0.267 0.967-0.333s0.678-0.1 1.033-0.1h14v-14.667h-14c-0.556 0-1.028 0.194-1.417 0.583s-0.583 0.861-0.583 1.417v13.1zM15.053 14.967h3.767l0.667 1.867c0.044 0.156 0.128 0.278 0.25 0.367s0.272 0.133 0.45 0.133c0.267 0 0.478-0.111 0.633-0.333s0.178-0.456 0.067-0.7l-2.933-7.8c-0.045-0.156-0.133-0.278-0.267-0.367s-0.289-0.133-0.467-0.133h-0.6c-0.178 0-0.333 0.044-0.467 0.133s-0.222 0.211-0.267 0.367l-2.933 7.833c-0.111 0.244-0.083 0.472 0.083 0.683s0.383 0.317 0.65 0.317c0.178 0 0.328-0.044 0.45-0.133s0.205-0.211 0.25-0.367l0.667-1.867zM15.519 13.6l1.367-3.867h0.1l1.367 3.867h-2.833zM10.952 26.667h12.433c-0.133-0.311-0.239-0.628-0.317-0.95s-0.117-0.672-0.117-1.050c0-0.356 0.033-0.7 0.1-1.033s0.178-0.656 0.333-0.967h-12.433c-0.578 0-1.056 0.194-1.433 0.583s-0.567 0.861-0.567 1.417c0 0.578 0.189 1.056 0.567 1.433s0.856 0.567 1.433 0.567z"></path>
</symbol>
<symbol id="calendar_today" viewBox="0 0 32 32">
<path fill="#686e80" style="fill: var(--color2, #686e80)" d="M6.667 29.333c-0.733 0-1.361-0.261-1.883-0.783s-0.783-1.15-0.783-1.883v-18.667c0-0.733 0.261-1.361 0.783-1.883s1.15-0.783 1.883-0.783h1.333v-2.667h2.667v2.667h10.667v-2.667h2.667v2.667h1.333c0.733 0 1.361 0.261 1.883 0.783s0.783 1.15 0.783 1.883v18.667c0 0.733-0.261 1.361-0.783 1.883s-1.15 0.783-1.883 0.783h-18.667zM6.667 26.667h18.667v-13.333h-18.667v13.333z"></path>
</symbol>
<symbol id="Check" viewBox="0 0 32 32">
<path fill="#1db954" style="fill: var(--color3, #1db954)" d="M25.327 6.667c-0.346 0.010-0.675 0.155-0.917 0.404l-13.724 13.724-4.391-4.391c-0.123-0.128-0.27-0.23-0.433-0.301s-0.338-0.108-0.515-0.109c-0.177-0.002-0.353 0.032-0.518 0.099s-0.313 0.166-0.439 0.292c-0.125 0.125-0.225 0.275-0.292 0.439s-0.101 0.34-0.099 0.518c0.002 0.177 0.039 0.353 0.109 0.515s0.173 0.31 0.301 0.433l5.333 5.333c0.25 0.25 0.589 0.39 0.943 0.39s0.693-0.14 0.943-0.39l14.667-14.667c0.193-0.187 0.324-0.428 0.378-0.692s0.026-0.537-0.079-0.784c-0.105-0.247-0.282-0.457-0.508-0.603s-0.491-0.218-0.759-0.211z"></path>
</symbol>
<symbol id="Cross" viewBox="0 0 27 32">
<path fill="#ce3838" style="fill: var(--color4, #ce3838)" d="M6.846 5.703c-0.227 0-0.45 0.068-0.638 0.195s-0.335 0.307-0.421 0.518c-0.086 0.211-0.106 0.442-0.060 0.665s0.159 0.426 0.322 0.585l6.049 6.049-6.049 6.049c-0.11 0.105-0.197 0.231-0.258 0.371s-0.092 0.29-0.094 0.442c-0.002 0.152 0.027 0.303 0.085 0.444s0.142 0.269 0.25 0.376 0.235 0.193 0.376 0.25c0.141 0.058 0.292 0.086 0.444 0.085s0.302-0.034 0.442-0.094c0.14-0.060 0.266-0.148 0.371-0.258l6.049-6.049 6.049 6.049c0.105 0.11 0.231 0.197 0.371 0.258s0.29 0.092 0.442 0.094c0.152 0.002 0.303-0.027 0.444-0.085s0.269-0.142 0.376-0.25c0.108-0.108 0.193-0.235 0.25-0.376s0.086-0.292 0.085-0.444c-0.002-0.152-0.033-0.302-0.094-0.442s-0.148-0.266-0.258-0.371l-6.049-6.049 6.049-6.049c0.165-0.161 0.278-0.367 0.324-0.593s0.022-0.46-0.068-0.672c-0.090-0.212-0.241-0.392-0.435-0.516s-0.421-0.187-0.651-0.181c-0.297 0.009-0.579 0.133-0.786 0.346l-6.049 6.049-6.049-6.049c-0.106-0.109-0.234-0.197-0.375-0.256s-0.292-0.090-0.445-0.090z"></path>
</symbol>
<symbol id="featured_seasonal_and_gifts" viewBox="0 0 33 32">
<path fill="#2f7ef3" style="fill: var(--color1, #2f7ef3)" d="M6.286 26.667v-12c-0.733 0-1.361-0.261-1.883-0.783s-0.783-1.15-0.783-1.883v-2.667c0-0.733 0.261-1.361 0.783-1.883s1.15-0.783 1.883-0.783h4.267c-0.111-0.2-0.183-0.411-0.217-0.633s-0.050-0.456-0.050-0.7c0-1.111 0.389-2.056 1.167-2.833s1.722-1.167 2.833-1.167c0.511 0 0.989 0.094 1.433 0.283s0.856 0.45 1.233 0.783c0.378-0.356 0.789-0.622 1.233-0.8s0.922-0.267 1.433-0.267c1.111 0 2.056 0.389 2.833 1.167s1.167 1.722 1.167 2.833c0 0.244-0.022 0.472-0.067 0.683s-0.111 0.428-0.2 0.65h4.267c0.733 0 1.361 0.261 1.883 0.783s0.783 1.15 0.783 1.883v2.667c0 0.733-0.261 1.361-0.783 1.883s-1.15 0.783-1.883 0.783v12c0 0.733-0.261 1.361-0.783 1.883s-1.15 0.783-1.883 0.783h-16c-0.733 0-1.361-0.261-1.883-0.783s-0.783-1.15-0.783-1.883zM19.619 4c-0.378 0-0.694 0.128-0.95 0.383s-0.383 0.572-0.383 0.95c0 0.378 0.128 0.694 0.383 0.95s0.572 0.383 0.95 0.383c0.378 0 0.694-0.128 0.95-0.383s0.383-0.572 0.383-0.95c0-0.378-0.128-0.694-0.383-0.95s-0.572-0.383-0.95-0.383zM12.952 5.333c0 0.378 0.128 0.694 0.383 0.95s0.572 0.383 0.95 0.383 0.694-0.128 0.95-0.383c0.256-0.256 0.383-0.572 0.383-0.95s-0.128-0.694-0.383-0.95c-0.256-0.256-0.572-0.383-0.95-0.383s-0.694 0.128-0.95 0.383c-0.256 0.256-0.383 0.572-0.383 0.95zM6.286 9.333v2.667h9.333v-2.667h-9.333zM15.619 26.667v-12h-6.667v12h6.667zM18.286 26.667h6.667v-12h-6.667v12zM27.619 12v-2.667h-9.333v2.667h9.333z"></path>
</symbol>
<symbol id="Frame-15" viewBox="0 0 48 32">
<path fill="#febd00" style="fill: var(--color5, #febd00)" d="M0 0h48v10.667h-48v-10.667z"></path>
<path fill="#013890" style="fill: var(--color6, #013890)" d="M0 10.667h48v10.667h-48v-10.667z"></path>
<path fill="#bf0711" style="fill: var(--color7, #bf0711)" d="M0 21.333h48v10.667h-48v-10.667z"></path>
</symbol>
<symbol id="Frame-427319488" viewBox="0 0 32 32">
<path fill="#10b700" style="fill: var(--color8, #10b700)" opacity="0.1" d="M16 5.333c5.891 0 10.667 4.776 10.667 10.667s-4.776 10.667-10.667 10.667c-5.891 0-10.667-4.776-10.667-10.667s4.776-10.667 10.667-10.667z"></path>
<path fill="#1db954" style="fill: var(--color3, #1db954); stroke: var(--color3, #1db954)" stroke="#1db954" stroke-linejoin="miter" stroke-linecap="butt" stroke-miterlimit="4" stroke-width="0.4" d="M20.805 11.8h-0c-0.186 0.006-0.361 0.087-0.488 0.224l-6.091 6.399-2.539-2.667c-0.064-0.070-0.142-0.126-0.228-0.166s-0.181-0.061-0.277-0.062c-0.096-0.001-0.19 0.018-0.278 0.056s-0.167 0.093-0.233 0.163c-0.066 0.069-0.118 0.151-0.153 0.241s-0.052 0.185-0.051 0.281 0.020 0.191 0.057 0.28c0.036 0.088 0.089 0.168 0.156 0.236l3.043 3.197c0.132 0.138 0.313 0.218 0.504 0.218s0.372-0.080 0.503-0.218v0l6.595-6.928c0.101-0.103 0.169-0.235 0.196-0.378s0.013-0.291-0.041-0.426c-0.054-0.135-0.147-0.251-0.267-0.332s-0.262-0.123-0.407-0.118z"></path>
</symbol>
<symbol id="Group-86" viewBox="0 0 33 32">
<path fill="#515865" style="fill: var(--color9, #515865)" d="M2.113 16c0-7.732 6.268-14 14-14 1.638 0 3.208 0.281 4.667 0.796l0.666-1.886c-1.669-0.59-3.465-0.911-5.333-0.911-8.837 0-16 7.163-16 16s7.163 16 16 16c8.837 0 16-7.163 16-16 0-2.027-0.378-3.969-1.067-5.756l-1.866 0.72c0.602 1.562 0.933 3.259 0.933 5.037 0 7.732-6.268 14-14 14s-14-6.268-14-14zM15.239 13.099c0 1.128 0.532 1.955 1.595 2.482-0.599 0.264-1.063 0.638-1.391 1.123-0.328 0.474-0.492 1.038-0.492 1.692 0 0.748 0.204 1.397 0.611 1.945 0.407 0.538 0.956 0.949 1.646 1.233 0.701 0.285 1.476 0.427 2.325 0.427s1.618-0.142 2.308-0.427c0.701-0.285 1.256-0.696 1.663-1.233 0.407-0.548 0.611-1.196 0.611-1.945 0-0.643-0.164-1.202-0.492-1.676-0.328-0.485-0.797-0.864-1.408-1.138 0.486-0.242 0.871-0.574 1.154-0.996 0.294-0.422 0.441-0.917 0.441-1.486s-0.158-1.086-0.475-1.549c-0.317-0.474-0.797-0.849-1.442-1.123-0.633-0.285-1.42-0.427-2.358-0.427s-1.731 0.142-2.375 0.427c-0.645 0.274-1.126 0.648-1.442 1.123-0.317 0.464-0.475 0.98-0.475 1.549zM20.584 12.514c0.272 0.232 0.407 0.564 0.407 0.996 0 0.411-0.136 0.738-0.407 0.98s-0.622 0.364-1.052 0.364c-0.43 0-0.781-0.116-1.052-0.348-0.271-0.242-0.407-0.569-0.407-0.98 0-0.432 0.13-0.769 0.39-1.012 0.271-0.242 0.628-0.364 1.069-0.364s0.792 0.121 1.052 0.364zM18.242 17.162c0.328-0.274 0.758-0.411 1.29-0.411 0.52 0 0.939 0.137 1.256 0.411 0.328 0.274 0.492 0.643 0.492 1.107 0 0.443-0.158 0.806-0.475 1.091-0.305 0.285-0.73 0.427-1.273 0.427s-0.979-0.142-1.307-0.427c-0.317-0.285-0.475-0.648-0.475-1.091 0-0.474 0.164-0.843 0.492-1.107zM8.113 10.237v2.514h1.68v9.028h3.020v-11.541h-4.7z"></path>
<path fill="#515865" style="fill: var(--color9, #515865)" d="M24.97 1h2.286v8h-2.286v-8z"></path>
<path fill="#515865" style="fill: var(--color9, #515865)" d="M30.113 3.857v2.286h-8v-2.286h8z"></path>
</symbol>
<symbol id="Group-427319484" viewBox="0 0 52 32">
<path fill="#691b5f" style="fill: var(--color10, #691b5f)" d="M4.8 0h43.2c2.209 0 4 1.791 4 4v24c0 2.209-1.791 4-4 4h-43.2c-2.209 0-4-1.791-4-4v-24c0-2.209 1.791-4 4-4z"></path>
<path fill="#fff" style="fill: var(--color11, #fff)" d="M34.076 12.811c0.796 0 1.445-0.663 1.445-1.477s-0.649-1.478-1.445-1.478c-0.796 0-1.445 0.663-1.445 1.478s0.649 1.477 1.445 1.477zM23.002 13.595c-0.059 0.166-0.531 1.523-1.666 2.925v-6l-3.023 0.618v10.885h3.023v-3.362c0.87 1.342 1.312 3.362 1.312 3.362h3.628c-0.354-1.523-1.932-4.327-1.932-4.327 1.401-1.824 2.020-3.769 2.123-4.086h-3.465v-0.015zM30.965 13.49c-2.713 0.091-4.085 1.327-4.085 3.799v4.734h2.949v-3.86c0-1.477 0.192-2.111 1.902-2.171v-2.458c-0.28-0.060-0.767-0.045-0.767-0.045zM13.24 14.801c-0.369-0.030-1.224-0.075-1.224-0.875 0-0.95 1.239-0.95 1.696-0.95 0.811 0 1.873 0.241 2.625 0.482 0 0 0.413 0.151 0.781 0.302l0.030 0.015v-2.608l-0.044-0.015c-0.885-0.317-1.917-0.618-3.834-0.618-3.303 0-4.468 1.975-4.468 3.649 0 0.965 0.413 3.257 4.188 3.528 0.324 0.015 1.165 0.075 1.165 0.89 0 0.678-0.693 1.070-1.873 1.070-1.283 0-2.536-0.332-3.288-0.648v2.669c1.135 0.301 2.404 0.452 3.908 0.452 3.229 0 4.675-1.869 4.675-3.709 0-2.081-1.622-3.453-4.335-3.633zM32.616 22.023h2.935v-8.413h-2.935v8.413zM41.066 11.062v10.961h2.935v-11.504l-2.935 0.543zM36.789 11.062l2.934-0.543v11.504h-2.934v-10.961z"></path>
</symbol>
<symbol id="Group-427319485" viewBox="0 0 52 32">
<path fill="#ecf2f9" style="fill: var(--color12, #ecf2f9)" d="M4.267 0h43.2c2.209 0 4 1.791 4 4v24c0 2.209-1.791 4-4 4h-43.2c-2.209 0-4-1.791-4-4v-24c0-2.209 1.791-4 4-4z"></path>
<path fill="#24262e" style="fill: var(--color13, #24262e)" d="M15.298 7.905c-0.588 0.028-1.313 0.402-1.728 0.928-0.38 0.454-0.705 1.19-0.623 1.881 0.664 0.057 1.33-0.345 1.744-0.857 0.408-0.527 0.677-1.232 0.607-1.952zM20.942 9.312v10.559h1.67v-3.52h2.289c2.1 0 3.607-1.461 3.607-3.52s-1.48-3.52-3.552-3.52h-4.015zM22.612 10.719h1.936c1.441 0 2.287 0.779 2.287 2.113s-0.839 2.11-2.287 2.11h-1.936v-4.223zM15.222 11.071c-0.968 0-1.661 0.527-2.113 0.527-0.459 0-1.144-0.522-1.936-0.522-0.968 0-1.915 0.608-2.415 1.494-1.027 1.77-0.266 4.392 0.726 5.834 0.487 0.713 1.073 1.467 1.865 1.467 0.726-0.027 0.971-0.44 1.847-0.44 0.882 0 1.144 0.44 1.936 0.44s1.272-0.726 1.758-1.439c0.555-0.809 0.781-1.6 0.795-1.641-0.013-0.013-1.535-0.597-1.549-2.353-0.013-1.469 1.198-2.169 1.253-2.209-0.684-1.016-1.817-1.157-2.081-1.157h-0.087zM32.344 12.128c-1.752 0-3.045 0.982-3.093 2.333h1.485c0.122-0.642 0.731-1.063 1.563-1.063 1.009 0 1.579 0.461 1.579 1.311v0.587l-2.062 0.11c-1.916 0.114-2.951 0.881-2.951 2.218 0 1.35 1.070 2.248 2.603 2.248 1.036 0 1.998-0.516 2.433-1.331h0.034v1.251h1.526v-5.188c-0.001-1.506-1.229-2.475-3.116-2.475zM36.075 12.128l2.823 7.706-0.151 0.47c-0.255 0.794-0.669 1.1-1.405 1.1-0.126 0-0.363-0.012-0.472-0.025v1.269c0.11 0.025 0.497 0.039 0.616 0.039 1.624 0 2.388-0.612 3.057-2.466l2.924-8.093h-1.693l-1.962 6.253h-0.034l-1.962-6.253h-1.741zM33.877 16.351l-0.007 0.612c0 0.976-0.845 1.67-1.961 1.67-0.879 0-1.439-0.414-1.439-1.049 0-0.656 0.54-1.037 1.57-1.098l1.838-0.135z"></path>
</symbol>
<symbol id="Group-427319486" viewBox="0 0 53 32">
<path fill="#ff9800" style="fill: var(--color14, #ff9800)" d="M5.067 0h43.2c2.209 0 4 1.791 4 4v24c0 2.209-1.791 4-4 4h-43.2c-2.209 0-4-1.791-4-4v-24c0-2.209 1.791-4 4-4z"></path>
<path fill="#262626" style="fill: var(--color15, #262626)" d="M22.417 6.4v2.259h-2.15v14.682h2.15v2.259h2.15v-2.259h2.15v2.259h2.15v-2.365c0.285-0.040 0.596-0.057 0.873-0.106 0.647-0.225 1.176-0.472 1.713-0.812 0.428-0.34 0.853-0.777 1.176-1.341s0.437-1.151 0.437-1.941c0-0.904-0.344-1.685-0.773-2.365-0.537-0.679-1.184-1.116-2.15-1.341 0.752-0.34 1.289-0.785 1.613-1.235s0.537-1.046 0.537-1.835c0-0.679-0.088-1.244-0.302-1.694s-0.546-0.904-0.974-1.129c-0.428-0.225-0.865-0.45-1.512-0.565-0.21-0.035-0.424-0.071-0.638-0.106v-2.365h-2.15v2.259h-2.15v-2.259h-2.15zM23.492 10.918h3.124c0.323 0 0.626-0.009 0.84 0.106 0.323 0 0.559 0.132 0.773 0.247s0.428 0.199 0.538 0.424 0.202 0.472 0.202 0.812c0 0.679-0.109 1.116-0.538 1.341-0.428 0.34-0.865 0.459-1.512 0.459h-3.427v-3.388zM23.492 16.565h3.763c0.752 0 1.411 0.225 1.949 0.565s0.739 1.010 0.739 1.8c0 0.34-0.092 0.799-0.202 1.024-0.214 0.34-0.458 0.556-0.672 0.671s-0.517 0.238-0.84 0.353-0.752 0.106-1.075 0.106h-3.662v-4.518z"></path>
</symbol>
<symbol id="Group-427319487" viewBox="0 0 52 32">
<path fill="#262626" style="fill: var(--color15, #262626)" d="M4.533 0h43.2c2.209 0 4 1.791 4 4v24c0 2.209-1.791 4-4 4h-43.2c-2.209 0-4-1.791-4-4v-24c0-2.209 1.791-4 4-4z"></path>
<path fill="#ff9800" style="fill: var(--color14, #ff9800)" d="M31.618 6.4c-1.261 0-2.509 0.248-3.674 0.731s-2.223 1.19-3.114 2.081c-0.891 0.891-1.599 1.95-2.081 3.114s-0.731 2.413-0.731 3.674 0.248 2.509 0.731 3.674c0.482 1.165 1.19 2.223 2.081 3.115s1.95 1.599 3.114 2.081c1.165 0.482 2.413 0.731 3.674 0.731s2.509-0.248 3.674-0.731c1.165-0.483 2.223-1.19 3.115-2.081s1.599-1.95 2.081-3.115c0.483-1.165 0.731-2.413 0.731-3.674s-0.248-2.509-0.731-3.674c-0.482-1.165-1.19-2.223-2.081-3.114s-1.95-1.599-3.115-2.081c-1.165-0.482-2.413-0.731-3.674-0.731z"></path>
<path fill="#d50000" style="fill: var(--color16, #d50000)" d="M20.647 6.4c-1.261 0-2.509 0.248-3.674 0.731s-2.223 1.19-3.114 2.081-1.599 1.95-2.081 3.114c-0.482 1.165-0.731 2.413-0.731 3.674s0.248 2.509 0.731 3.674c0.482 1.165 1.19 2.223 2.081 3.115s1.95 1.599 3.114 2.081c1.165 0.482 2.413 0.731 3.674 0.731s2.509-0.248 3.674-0.731c1.165-0.483 2.223-1.19 3.115-2.081s1.599-1.95 2.081-3.115c0.482-1.165 0.731-2.413 0.731-3.674s-0.248-2.509-0.731-3.674c-0.483-1.165-1.19-2.223-2.081-3.114s-1.95-1.599-3.115-2.081c-1.165-0.482-2.413-0.731-3.674-0.731z"></path>
<path fill="#ff3d00" style="fill: var(--color17, #ff3d00)" d="M22.018 16c0 3.261 1.629 6.137 4.114 7.872 2.485-1.735 4.114-4.611 4.114-7.872s-1.629-6.137-4.114-7.872c-2.485 1.735-4.114 4.611-4.114 7.872z"></path>
</symbol>
<symbol id="Group-427319488" viewBox="0 0 52 32">
<path fill="#00579f" style="fill: var(--color18, #00579f)" d="M4 0h43.2c2.209 0 4 1.791 4 4v24c0 2.209-1.791 4-4 4h-43.2c-2.209 0-4-1.791-4-4v-24c0-2.209 1.791-4 4-4z"></path>
<path fill="#fff" style="fill: var(--color11, #fff)" d="M23.11 20.979h-2.816l1.743-11.105h2.816l-1.743 11.105z"></path>
<path fill="#fff" style="fill: var(--color11, #fff)" d="M33.302 10.080c-0.536-0.206-1.408-0.48-2.548-0.48-2.749 0-4.76 1.508-4.76 3.702 0 1.577 1.408 2.468 2.481 3.016s1.475 0.891 1.475 1.371c0 0.754-0.872 1.097-1.676 1.097-1.14 0-1.743-0.206-2.615-0.617l-0.402-0.206-0.402 2.468c0.671 0.274 1.877 0.548 3.151 0.617 2.95 0 4.894-1.508 4.894-3.77 0-1.234-0.737-2.262-2.347-3.016-1.006-0.48-1.609-0.823-1.609-1.371 0-0.48 0.536-0.96 1.609-0.96 0.939 0 1.609 0.206 2.078 0.411l0.268 0.137 0.402-2.399z"></path>
<path fill="#fff" style="fill: var(--color11, #fff)" d="M37.054 17.003c0.201-0.617 1.14-3.085 1.14-3.085s0.201-0.686 0.402-1.097l0.201 0.96c0 0 0.536 2.673 0.67 3.222-0.536 0-1.877 0-2.414 0zM40.473 9.874h-2.145c-0.671 0-1.207 0.206-1.475 0.891l-4.157 10.214h2.95c0 0 0.469-1.371 0.603-1.645 0.335 0 3.218 0 3.62 0 0.067 0.411 0.335 1.645 0.335 1.645h2.615l-2.347-11.105z"></path>
<path fill="#fff" style="fill: var(--color11, #fff)" d="M17.88 9.874l-2.749 7.609-0.268-1.508c-0.536-1.851-2.145-3.77-3.889-4.73l2.548 9.734h2.95l4.425-11.105h-3.017z"></path>
<path fill="#faa61a" style="fill: var(--color19, #faa61a)" d="M12.584 9.874h-4.559l-0.067 0.206c3.553 0.891 5.9 3.153 6.839 5.827l-1.006-5.141c-0.067-0.685-0.603-0.891-1.207-0.891z"></path>
</symbol>
<symbol id="Group" viewBox="0 0 32 32">
<path fill="#2f7ef3" style="fill: var(--color1, #2f7ef3)" d="M0 16.438c0-0.292 0-0.583 0-0.875 0.189-0.934 0.792-1.588 1.442-2.236 3.964-3.945 7.919-7.899 11.864-11.863 0.654-0.657 1.311-1.274 2.257-1.464 0.292 0 0.583 0 0.875 0 0.934 0.187 1.587 0.792 2.233 1.442 3.959 3.977 7.926 7.946 11.905 11.904 0.66 0.657 1.261 1.325 1.424 2.279 0 0.25 0 0.5 0 0.75-0.018 0.047-0.044 0.094-0.054 0.142-0.289 1.45-1.435 2.407-2.908 2.424-0.151 0.002-0.302 0-0.471 0 0 0.174 0 0.297 0 0.421-0.001 3.091 0.008 6.183-0.008 9.274-0.008 1.466-1.005 2.765-2.402 3.199-0.196 0.061-0.396 0.109-0.594 0.163-1.917 0-3.833 0-5.75 0-0.554-0.206-0.75-0.613-0.746-1.191 0.015-2.383 0.008-4.765 0.006-7.147-0.001-1.063-0.646-1.704-1.714-1.707-0.884-0.003-1.769-0.001-2.653-0.001-1.156 0.001-1.779 0.619-1.779 1.768-0.001 2.362-0.009 4.724 0.006 7.086 0.004 0.578-0.189 0.987-0.743 1.194-1.917 0-3.833 0-5.75 0-0.026-0.015-0.052-0.041-0.079-0.044-1.492-0.185-2.965-1.572-2.938-3.599 0.041-3.009 0.011-6.019 0.011-9.028 0-0.121 0-0.242 0-0.388-0.218 0-0.394 0.008-0.569-0.001-1.145-0.059-1.998-0.596-2.535-1.604-0.149-0.277-0.221-0.597-0.328-0.898z"></path>
</symbol>
<symbol id="android" viewBox="0 0 32 32">
<path fill="#686e80" style="fill: var(--color2, #686e80)" d="M10 1.333c-0.171 0-0.341 0.065-0.471 0.195-0.26 0.26-0.26 0.683 0 0.943l1.747 1.747c-1.984 1.456-3.276 3.798-3.276 6.448h16c0-2.65-1.292-4.992-3.276-6.448l1.747-1.747c0.26-0.261 0.26-0.681 0-0.943-0.26-0.26-0.683-0.26-0.943 0l-1.977 1.977c-1.071-0.532-2.275-0.839-3.552-0.839s-2.481 0.306-3.552 0.839l-1.977-1.977c-0.13-0.13-0.301-0.195-0.471-0.195zM12 6.667h1.333v1.333h-1.333v-1.333zM18.667 6.667h1.333v1.333h-1.333v-1.333zM5.333 12c-0.736 0-1.333 0.597-1.333 1.333v8c0 0.736 0.597 1.333 1.333 1.333s1.333-0.597 1.333-1.333v-8c0-0.736-0.597-1.333-1.333-1.333zM8 12v10.667c0 0.736 0.597 1.333 1.333 1.333h1.333v4.667c0 1.104 0.896 2 2 2s2-0.896 2-2v-4.667h2.667v4.667c0 1.104 0.896 2 2 2s2-0.896 2-2v-4.667h1.333c0.736 0 1.333-0.597 1.333-1.333v-10.667h-16zM26.667 12c-0.736 0-1.333 0.597-1.333 1.333v8c0 0.736 0.597 1.333 1.333 1.333s1.333-0.597 1.333-1.333v-8c0-0.736-0.597-1.333-1.333-1.333z"></path>
</symbol>
<symbol id="apple" viewBox="0 0 32 32">
<path fill="#686e80" style="fill: var(--color2, #686e80)" d="M21.5 1.333c-1.537 0.089-3.302 0.946-4.352 2.036-0.948 0.992-1.696 2.465-1.391 3.891 1.671 0.044 3.347-0.835 4.351-1.945 0.937-1.039 1.648-2.488 1.391-3.982zM21.591 7.258c-2.412 0-3.421 1.482-5.091 1.482-1.719 0-3.29-1.388-5.37-1.388-2.829 0.001-7.13 2.622-7.13 8.797 0 5.617 5.090 11.852 7.964 11.852 1.745 0.017 2.168-1.097 4.536-1.109 2.371-0.017 2.882 1.124 4.63 1.109 1.968-0.015 3.505-2.177 4.628-3.891 0.805-1.227 1.136-1.853 1.76-3.24-4.631-1.173-5.552-8.641 0-10.185-1.048-1.788-4.107-3.427-5.927-3.427z"></path>
</symbol>
<symbol id="icons8-deposit-1" viewBox="0 0 33 32">
<path fill="#686e80" style="fill: var(--color2, #686e80)" d="M4.667 2.667c-0.736 0-1.333 0.597-1.333 1.333v13.333c0 0.736 0.597 1.333 1.333 1.333h24c0.736 0 1.333-0.597 1.333-1.333v-13.333c0-0.736-0.597-1.333-1.333-1.333h-24zM7.216 5.333h18.901c0.099 0.28 0.26 0.535 0.471 0.745s0.465 0.371 0.745 0.471v8.234c-0.28 0.099-0.535 0.26-0.745 0.471s-0.371 0.465-0.471 0.745h-18.901c-0.099-0.28-0.26-0.535-0.471-0.745s-0.465-0.371-0.745-0.471v-8.234c0.28-0.099 0.535-0.26 0.745-0.471s0.371-0.465 0.471-0.745zM16.667 6.667c-1.061 0-2.078 0.421-2.828 1.172s-1.172 1.768-1.172 2.828 0.421 2.078 1.172 2.828c0.75 0.75 1.768 1.172 2.828 1.172s2.078-0.421 2.828-1.172c0.75-0.75 1.172-1.768 1.172-2.828s-0.421-2.078-1.172-2.828c-0.75-0.75-1.768-1.172-2.828-1.172zM10 9.333c-0.736 0-1.333 0.596-1.333 1.333s0.597 1.333 1.333 1.333c0.736 0 1.333-0.596 1.333-1.333s-0.597-1.333-1.333-1.333zM23.333 9.333c-0.736 0-1.333 0.596-1.333 1.333s0.597 1.333 1.333 1.333c0.736 0 1.333-0.596 1.333-1.333s-0.597-1.333-1.333-1.333zM16.646 19.982c-0.353 0.006-0.69 0.151-0.936 0.404s-0.381 0.594-0.377 0.947v2.667h-2.977c-0.604 0-0.91 0.731-0.482 1.159l3.74 3.74c0.581 0.581 1.523 0.581 2.104 0l3.74-3.74c0.428-0.428 0.122-1.159-0.482-1.159h-2.977v-2.667c0.002-0.178-0.031-0.355-0.098-0.521s-0.167-0.315-0.293-0.441c-0.126-0.126-0.277-0.225-0.442-0.292s-0.342-0.1-0.521-0.097z"></path>
</symbol>
<symbol id="ellipsis" viewBox="0 0 32 32">
<path fill="#2f7ef3" style="fill: var(--color1, #2f7ef3)" d="M4.267 11.733c-2.356 0-4.267 1.91-4.267 4.267s1.91 4.267 4.267 4.267c2.356 0 4.267-1.91 4.267-4.267s-1.91-4.267-4.267-4.267zM16 11.733c-2.356 0-4.267 1.91-4.267 4.267s1.91 4.267 4.267 4.267c2.356 0 4.267-1.91 4.267-4.267s-1.91-4.267-4.267-4.267zM27.733 11.733c-2.356 0-4.267 1.91-4.267 4.267s1.91 4.267 4.267 4.267c2.356 0 4.267-1.91 4.267-4.267s-1.91-4.267-4.267-4.267z"></path>
</symbol>
<symbol id="icons8-gift-1" viewBox="0 0 32 32">
<path fill="#2f7ef3" style="fill: var(--color1, #2f7ef3)" d="M13.5 3c-1.93 0-3.5 1.57-3.5 3.5 0 0.537 0.125 1.045 0.343 1.5h-3.343c-1.378 0-2.5 1.121-2.5 2.5v2c0 1.023 0.618 1.902 1.5 2.289v7.211c0 2.205 1.795 4 4 4h12c2.205 0 4-1.795 4-4v-7.211c0.882-0.387 1.5-1.266 1.5-2.289v-2c0-1.379-1.121-2.5-2.5-2.5h-3.343c0.217-0.455 0.343-0.963 0.343-1.5 0-1.93-1.571-3.5-3.5-3.5-0.979 0-1.864 0.405-2.5 1.056-0.636-0.651-1.521-1.056-2.5-1.056zM13.5 5c0.827 0 1.5 0.673 1.5 1.5v1.5h-1.5c-0.827 0-1.5-0.673-1.5-1.5s0.673-1.5 1.5-1.5zM18.5 5c0.827 0 1.5 0.673 1.5 1.5s-0.673 1.5-1.5 1.5h-1.5v-1.5c0-0.827 0.673-1.5 1.5-1.5zM7 10h8v3h-8c-0.276 0-0.5-0.225-0.5-0.5v-2c0-0.275 0.224-0.5 0.5-0.5zM17 10h8c0.276 0 0.5 0.225 0.5 0.5v2c0 0.275-0.224 0.5-0.5 0.5h-8v-3zM8 15h7v9h-5c-1.103 0-2-0.897-2-2v-7zM17 15h7v7c0 1.103-0.897 2-2 2h-5v-9z"></path>
</symbol>
<symbol id="icons8-time-is-money-1-1" viewBox="0 0 32 32">
<path fill="#686e80" style="fill: var(--color2, #686e80)" d="M16 2.667c-7.352 0-13.333 5.981-13.333 13.333s5.981 13.333 13.333 13.333c0.553 0 1.095-0.045 1.631-0.111-0.193-0.371-0.298-0.779-0.298-1.223v-8c0-2.626 3.689-4 7.333-4 1.647 0 3.304 0.28 4.625 0.831 0.017-0.277 0.042-0.55 0.042-0.831 0-7.352-5.981-13.333-13.333-13.333zM16.333 8c0.553 0 1 0.447 1 1v8c0 0.553-0.447 1-1 1h-5.333c-0.553 0-1-0.447-1-1s0.447-1 1-1h4.333v-7c0-0.553 0.447-1 1-1zM24.667 17.333c-3.314 0-6 1.194-6 2.667s2.686 2.667 6 2.667c3.314 0 6-1.194 6-2.667s-2.686-2.667-6-2.667zM18.667 22v2c0 1.473 2.687 2.667 6 2.667s6-1.193 6-2.667v-2c0 1.473-2.687 2.667-6 2.667s-6-1.193-6-2.667zM18.667 26v2c0 1.473 2.687 2.667 6 2.667s6-1.193 6-2.667v-2c0 1.473-2.687 2.667-6 2.667s-6-1.193-6-2.667z"></path>
</symbol>
<symbol id="icons8-windows-1" viewBox="0 0 32 32">
<path fill="#686e80" style="fill: var(--color2, #686e80)" d="M25.458 2.669c-0.193-0.009-0.388 0.003-0.583 0.036l-8.875 1.547v10.414h12v-9.333c0-0.789-0.347-1.534-0.951-2.042-0.453-0.381-1.011-0.595-1.591-0.622zM13.333 4.716l-7.125 1.242c-1.279 0.224-2.208 1.329-2.208 2.628v6.081h9.333v-9.951zM4 17.333v6.081c0 1.299 0.93 2.404 2.208 2.628l7.125 1.242v-9.951h-9.333zM16 17.333v10.414l8.875 1.547c0.153 0.027 0.308 0.039 0.461 0.039 0.623 0 1.228-0.22 1.713-0.628 0.604-0.508 0.951-1.251 0.951-2.039v-9.333h-12z"></path>
</symbol>
<symbol id="info" viewBox="0 0 33 32">
<path fill="#2f7ef3" style="fill: var(--color1, #2f7ef3)" d="M16.952 22.667c0.378 0 0.694-0.128 0.95-0.383s0.383-0.572 0.383-0.95v-5.333c0-0.378-0.128-0.694-0.383-0.95s-0.572-0.383-0.95-0.383c-0.378 0-0.694 0.128-0.95 0.383s-0.383 0.572-0.383 0.95v5.333c0 0.378 0.128 0.694 0.383 0.95s0.572 0.383 0.95 0.383zM16.952 12c0.378 0 0.694-0.128 0.95-0.383s0.383-0.572 0.383-0.95c0-0.378-0.128-0.694-0.383-0.95s-0.572-0.383-0.95-0.383c-0.378 0-0.694 0.128-0.95 0.383s-0.383 0.572-0.383 0.95c0 0.378 0.128 0.694 0.383 0.95s0.572 0.383 0.95 0.383zM16.952 29.333c-1.844 0-3.578-0.35-5.2-1.050s-3.033-1.65-4.233-2.85-2.15-2.611-2.85-4.233c-0.7-1.622-1.050-3.356-1.050-5.2s0.35-3.578 1.050-5.2c0.7-1.622 1.65-3.033 2.85-4.233s2.611-2.15 4.233-2.85c1.622-0.7 3.356-1.050 5.2-1.050s3.578 0.35 5.2 1.050c1.622 0.7 3.033 1.65 4.233 2.85s2.15 2.611 2.85 4.233c0.7 1.622 1.050 3.356 1.050 5.2s-0.35 3.578-1.050 5.2c-0.7 1.622-1.65 3.033-2.85 4.233s-2.611 2.15-4.233 2.85c-1.622 0.7-3.356 1.050-5.2 1.050zM16.952 26.667c2.978 0 5.5-1.033 7.567-3.1s3.1-4.589 3.1-7.567c0-2.978-1.033-5.5-3.1-7.567s-4.589-3.1-7.567-3.1c-2.978 0-5.5 1.033-7.567 3.1s-3.1 4.589-3.1 7.567c0 2.978 1.033 5.5 3.1 7.567s4.589 3.1 7.567 3.1z"></path>
</symbol>
<symbol id="Line" viewBox="0 0 32 32">
<path d="M13.057 10.391c-0.521 0.521-0.521 1.365 0 1.886l3.724 3.724-3.724 3.724c-0.521 0.521-0.521 1.365 0 1.886s1.365 0.521 1.886 0l4.667-4.667c0.521-0.521 0.521-1.365 0-1.886l-4.667-4.667c-0.521-0.521-1.365-0.521-1.886 0z"></path>
</symbol>
<symbol id="Logo" viewBox="0 0 93 32">
<path fill="#002c4c" style="fill: var(--color20, #002c4c)" d="M37.18 19.18c-0.051 0-0.077-0.032-0.077-0.097l0.019-13.25c0-0.064 0.032-0.097 0.096-0.097h2.128c0.064 0 0.096 0.032 0.096 0.097l-0.019 10.971h3.949c0.064 0 0.096 0.032 0.096 0.097v2.183c0 0.065-0.032 0.097-0.096 0.097l-6.192-0z"></path>
<path fill="#002c4c" style="fill: var(--color20, #002c4c)" d="M44.446 19.083l2.377-13.269c0.013-0.051 0.045-0.077 0.096-0.077h2.78c0.051 0 0.083 0.026 0.096 0.077l2.281 13.269c0.013 0.065-0.013 0.097-0.077 0.097h-2.128c-0.051 0-0.083-0.032-0.096-0.097l-0.211-1.41h-2.607l-0.211 1.41c-0.013 0.065-0.045 0.097-0.096 0.097h-2.128c-0.051-0-0.077-0.032-0.077-0.097zM47.341 15.606h1.84l-0.786-5.427-0.115-0.715-0.077 0.715-0.863 5.427z"></path>
<path fill="#002c4c" style="fill: var(--color20, #002c4c)" d="M57.155 19.18c-0.051 0-0.077-0.032-0.077-0.097l0.019-13.269c0-0.051 0.032-0.077 0.096-0.077h2.128c0.064 0 0.096 0.026 0.096 0.077l-0.019 5.254h2.876v-5.254c0-0.051 0.025-0.077 0.077-0.077h2.128c0.064 0 0.096 0.026 0.096 0.077l0.038 13.269c0 0.065-0.032 0.097-0.096 0.097h-2.147c-0.064 0-0.096-0.032-0.096-0.097v-5.679h-2.876v5.679c0 0.065-0.026 0.097-0.077 0.097h-2.166z"></path>
<path fill="#002c4c" style="fill: var(--color20, #002c4c)" d="M70.115 19.373c-0.69 0-1.32-0.177-1.888-0.531s-1.026-0.824-1.371-1.41c-0.345-0.586-0.518-1.233-0.518-1.941l0.019-6.123c0-0.708 0.169-1.352 0.508-1.931s0.796-1.043 1.371-1.391c0.575-0.348 1.201-0.521 1.879-0.521 0.69 0 1.316 0.174 1.879 0.521s1.013 0.811 1.352 1.391c0.339 0.579 0.508 1.224 0.508 1.931l0.019 6.123c0 0.708-0.17 1.356-0.508 1.941s-0.793 1.056-1.361 1.41c-0.569 0.354-1.198 0.531-1.889 0.531zM70.115 17.036c0.383 0 0.719-0.158 1.006-0.473s0.431-0.673 0.431-1.072l-0.019-6.123c0-0.425-0.134-0.785-0.403-1.082s-0.607-0.444-1.016-0.444c-0.396 0-0.735 0.145-1.016 0.435s-0.422 0.654-0.422 1.091v6.123c0 0.425 0.141 0.789 0.422 1.091s0.62 0.454 1.016 0.454z"></path>
<path fill="#002c4c" style="fill: var(--color20, #002c4c)" d="M75.789 19.18c-0.051 0-0.077-0.032-0.077-0.097l0.038-13.269c0-0.051 0.025-0.077 0.077-0.077h3.872c0.69 0 1.326 0.171 1.908 0.512s1.045 0.798 1.39 1.371c0.345 0.573 0.518 1.22 0.518 1.941 0 0.477-0.070 0.905-0.211 1.284s-0.307 0.702-0.498 0.966c-0.192 0.264-0.364 0.461-0.518 0.589 0.69 0.773 1.035 1.68 1.035 2.723l0.019 3.96c0 0.064-0.032 0.097-0.096 0.097h-2.166c-0.051 0-0.077-0.019-0.077-0.058v-3.998c0-0.464-0.163-0.866-0.489-1.207s-0.726-0.512-1.198-0.512h-1.265l-0.019 5.679c0 0.064-0.026 0.097-0.077 0.097l-2.166 0zM78.051 11.087h1.649c0.396 0 0.748-0.148 1.054-0.444s0.46-0.657 0.46-1.082c0-0.412-0.15-0.766-0.451-1.062s-0.655-0.444-1.064-0.444h-1.649v3.032h0z"></path>
<path fill="#002c4c" style="fill: var(--color20, #002c4c)" d="M84.685 19.083l2.377-13.269c0.013-0.051 0.045-0.077 0.096-0.077h2.78c0.051 0 0.083 0.026 0.096 0.077l2.281 13.269c0.013 0.065-0.013 0.097-0.077 0.097h-2.128c-0.051 0-0.083-0.032-0.096-0.097l-0.211-1.41h-2.607l-0.211 1.41c-0.013 0.065-0.045 0.097-0.096 0.097h-2.128c-0.051-0-0.077-0.032-0.077-0.097zM87.579 15.606h1.84l-0.786-5.427-0.115-0.715-0.077 0.715-0.863 5.427z"></path>
<path fill="#002c4c" style="fill: var(--color20, #002c4c)" d="M37.871 28.956c-0.252-0.077-0.427-0.224-0.525-0.441s-0.147-0.554-0.147-1.011v-1.754c0-0.495 0.14-0.844 0.419-1.049s0.732-0.306 1.359-0.306c0.295 0 0.526 0.017 0.695 0.051s0.305 0.093 0.41 0.176c0.104 0.084 0.212 0.206 0.322 0.366v-2.506h1.345v6.496h-1.299v-0.51c-0.111 0.18-0.21 0.305-0.299 0.376s-0.213 0.125-0.373 0.162c-0.166 0.043-0.411 0.065-0.737 0.065-0.528 0-0.918-0.039-1.17-0.116zM40.045 28.181c0.141-0.031 0.236-0.088 0.286-0.172s0.074-0.209 0.074-0.376v-1.81c0-0.155-0.026-0.274-0.078-0.357s-0.144-0.144-0.276-0.181c-0.132-0.037-0.33-0.056-0.594-0.056-0.283 0-0.485 0.017-0.608 0.051s-0.204 0.093-0.244 0.176c-0.040 0.083-0.060 0.221-0.060 0.413v1.717c0 0.173 0.020 0.305 0.060 0.394s0.118 0.153 0.235 0.19c0.117 0.037 0.298 0.056 0.543 0.056 0.301 0 0.522-0.015 0.663-0.046z"></path>
<path fill="#002c4c" style="fill: var(--color20, #002c4c)" d="M42.799 27.615v-1.615c0-0.563 0.18-0.971 0.539-1.225s0.913-0.38 1.663-0.38c0.706 0 1.223 0.122 1.552 0.366s0.493 0.657 0.493 1.239v1.095h-2.892v0.408c0 0.26 0.092 0.445 0.276 0.557s0.516 0.167 0.995 0.167c0.442 0 0.939-0.065 1.492-0.195v0.863c-0.547 0.118-1.13 0.176-1.75 0.176-1.578 0-2.367-0.485-2.367-1.457zM45.765 26.325v-0.65c0-0.148-0.060-0.26-0.18-0.334s-0.321-0.111-0.603-0.111c-0.326 0-0.543 0.037-0.654 0.111-0.117 0.080-0.175 0.192-0.175 0.334v0.65h1.612z"></path>
<path fill="#002c4c" style="fill: var(--color20, #002c4c)" d="M48.114 22.483h1.345v6.496h-1.345v-6.496z"></path>
<path fill="#002c4c" style="fill: var(--color20, #002c4c)" d="M52.986 30.956v-0.909c0.577 0.080 1.114 0.121 1.612 0.121 0.454 0 0.78-0.074 0.976-0.223s0.295-0.396 0.295-0.742v-0.724c-0.111 0.161-0.218 0.283-0.322 0.366s-0.241 0.142-0.41 0.176c-0.169 0.034-0.401 0.051-0.695 0.051-0.436 0-0.783-0.042-1.041-0.125s-0.445-0.223-0.562-0.418c-0.117-0.195-0.175-0.465-0.175-0.812v-1.754c0-0.414 0.054-0.733 0.161-0.956s0.291-0.381 0.553-0.473c0.261-0.093 0.637-0.139 1.128-0.139 0.319 0 0.565 0.019 0.737 0.056 0.166 0.037 0.292 0.093 0.378 0.167s0.184 0.201 0.295 0.381v-0.51h1.299v4.733c0 0.637-0.216 1.096-0.649 1.378s-1.088 0.422-1.966 0.422c-0.725-0-1.262-0.022-1.612-0.065zM55.514 28.172c0.132-0.037 0.224-0.097 0.276-0.181s0.078-0.203 0.078-0.357v-1.81c0-0.167-0.025-0.292-0.074-0.376s-0.144-0.141-0.286-0.172c-0.141-0.031-0.362-0.046-0.663-0.046-0.246 0-0.427 0.019-0.543 0.056s-0.195 0.101-0.235 0.19c-0.040 0.090-0.060 0.221-0.060 0.394v1.717c0 0.192 0.020 0.33 0.060 0.413s0.121 0.142 0.244 0.176c0.123 0.034 0.325 0.051 0.608 0.051 0.264 0 0.462-0.018 0.594-0.056z"></path>
<path fill="#002c4c" style="fill: var(--color20, #002c4c)" d="M58.719 28.956c-0.206-0.077-0.35-0.217-0.433-0.418s-0.124-0.503-0.124-0.905c0-0.359 0.044-0.64 0.134-0.844s0.233-0.351 0.433-0.441c0.199-0.090 0.474-0.135 0.824-0.135h1.511v-0.306c0-0.192-0.026-0.334-0.078-0.427s-0.147-0.158-0.286-0.195-0.345-0.056-0.622-0.056c-0.381 0-0.903 0.037-1.566 0.111v-0.854c0.485-0.062 1.053-0.093 1.704-0.093 0.571 0 1.011 0.043 1.322 0.13s0.533 0.235 0.668 0.445c0.135 0.21 0.203 0.517 0.203 0.919v3.090h-1.317v-0.408c-0.104 0.18-0.246 0.306-0.424 0.38-0.178 0.080-0.516 0.121-1.013 0.121-0.418 0-0.729-0.039-0.935-0.116zM60.759 28.2c0.086-0.012 0.146-0.031 0.18-0.056s0.063-0.065 0.087-0.121c0.025-0.043 0.037-0.108 0.037-0.195v-0.872h-0.921c-0.209 0-0.356 0.014-0.442 0.042s-0.144 0.084-0.175 0.167c-0.031 0.084-0.046 0.231-0.046 0.441 0 0.204 0.015 0.346 0.046 0.427s0.090 0.133 0.18 0.158c0.089 0.025 0.247 0.037 0.474 0.037 0.27 0 0.464-0.009 0.58-0.028z"></path>
<path fill="#002c4c" style="fill: var(--color20, #002c4c)" d="M63.587 24.488h1.345v0.547c0.086-0.427 0.525-0.64 1.317-0.64 0.418 0 0.734 0.054 0.949 0.162s0.359 0.277 0.433 0.506c0.074-0.235 0.216-0.405 0.428-0.51s0.533-0.158 0.963-0.158c0.387 0 0.685 0.045 0.893 0.135s0.355 0.227 0.437 0.413 0.124 0.433 0.124 0.742v3.294h-1.345v-3.109c0-0.198-0.012-0.339-0.037-0.422s-0.078-0.141-0.161-0.172c-0.083-0.031-0.226-0.046-0.428-0.046-0.252 0-0.432 0.016-0.539 0.046s-0.178 0.088-0.212 0.172c-0.034 0.083-0.051 0.224-0.051 0.422v3.109h-1.345v-3.109c0-0.198-0.012-0.339-0.037-0.422s-0.078-0.141-0.161-0.172c-0.083-0.031-0.226-0.046-0.428-0.046-0.252 0-0.431 0.016-0.539 0.046s-0.178 0.088-0.212 0.172c-0.034 0.083-0.051 0.224-0.051 0.422v3.109h-1.345v-4.491z"></path>
<path fill="#002c4c" style="fill: var(--color20, #002c4c)" d="M72.572 28.896c-0.329-0.117-0.563-0.298-0.705-0.543s-0.212-0.568-0.212-0.97v-4.9h1.345v2.45c0.080-0.204 0.227-0.345 0.442-0.422s0.549-0.116 1.004-0.116c0.387 0 0.698 0.031 0.935 0.093s0.416 0.161 0.539 0.297c0.117 0.136 0.196 0.286 0.239 0.45s0.064 0.388 0.064 0.673v1.475c0 0.606-0.181 1.039-0.543 1.299s-0.952 0.39-1.768 0.39c-0.565 0-1.012-0.059-1.34-0.176zM74.529 28.172c0.135-0.037 0.227-0.102 0.276-0.195s0.074-0.232 0.074-0.418v-1.661c0-0.204-0.022-0.351-0.064-0.441s-0.129-0.15-0.258-0.181c-0.129-0.031-0.341-0.046-0.636-0.046-0.252 0-0.444 0.022-0.576 0.065s-0.223 0.111-0.272 0.204c-0.049 0.093-0.074 0.226-0.074 0.399v1.661c0 0.186 0.023 0.325 0.069 0.418s0.135 0.158 0.267 0.195c0.132 0.037 0.33 0.056 0.594 0.056s0.464-0.019 0.599-0.056z"></path>
<path fill="#002c4c" style="fill: var(--color20, #002c4c)" d="M77.311 22.483h1.345v6.496h-1.345v-6.496z"></path>
<path fill="#002c4c" style="fill: var(--color20, #002c4c)" d="M79.908 22.864h1.345v1.095h-1.345v-1.095zM79.908 24.488h1.345v4.491h-1.345v-4.491z"></path>
<path fill="#002c4c" style="fill: var(--color20, #002c4c)" d="M82.469 24.488h1.326v0.547c0.104-0.427 0.58-0.64 1.428-0.64 0.571 0 0.972 0.104 1.202 0.311s0.345 0.533 0.345 0.979v3.294h-1.345v-3.118c0-0.173-0.017-0.303-0.051-0.39s-0.101-0.148-0.203-0.186c-0.101-0.037-0.257-0.056-0.465-0.056-0.264 0-0.457 0.017-0.58 0.051s-0.206 0.094-0.249 0.181c-0.043 0.087-0.064 0.22-0.064 0.399v3.118h-1.345v-4.491z"></path>
<path fill="#002c4c" style="fill: var(--color20, #002c4c)" d="M88.142 30.956v-0.909c0.577 0.080 1.114 0.121 1.612 0.121 0.454 0 0.78-0.074 0.976-0.223s0.295-0.396 0.295-0.742v-0.724c-0.111 0.161-0.218 0.283-0.322 0.366s-0.241 0.142-0.41 0.176c-0.169 0.034-0.401 0.051-0.695 0.051-0.436 0-0.783-0.042-1.041-0.125s-0.445-0.223-0.562-0.418c-0.117-0.195-0.175-0.465-0.175-0.812v-1.754c0-0.414 0.054-0.733 0.161-0.956s0.292-0.381 0.553-0.473c0.261-0.093 0.637-0.139 1.128-0.139 0.319 0 0.565 0.019 0.737 0.056 0.166 0.037 0.292 0.093 0.378 0.167s0.184 0.201 0.295 0.381v-0.51h1.299v4.733c0 0.637-0.216 1.096-0.649 1.378s-1.088 0.422-1.966 0.422c-0.725-0-1.262-0.022-1.612-0.065zM90.67 28.172c0.132-0.037 0.224-0.097 0.276-0.181s0.078-0.203 0.078-0.357v-1.81c0-0.167-0.025-0.292-0.074-0.376s-0.144-0.141-0.286-0.172c-0.141-0.031-0.362-0.046-0.663-0.046-0.246 0-0.427 0.019-0.543 0.056s-0.195 0.101-0.235 0.19c-0.040 0.090-0.060 0.221-0.060 0.394v1.717c0 0.192 0.020 0.33 0.060 0.413s0.121 0.142 0.244 0.176c0.123 0.034 0.325 0.051 0.608 0.051 0.264 0 0.462-0.018 0.594-0.056z"></path>
<path fill="#002c4c" style="fill: var(--color20, #002c4c)" d="M15.689 30.764c8.145 0 14.748-6.652 14.748-14.858s-6.603-14.859-14.748-14.859c-8.145 0-14.748 6.652-14.748 14.859s6.603 14.858 14.748 14.858z"></path>
<path fill="#f7f8fd" style="fill: var(--color21, #f7f8fd)" d="M15.688 9.814l-6.046 6.091 6.046 6.091 6.046-6.091-6.046-6.091z"></path>
<path fill="#f01717" style="fill: var(--color22, #f01717)" d="M8.362 2.944l2.078 3.712c0 0 2.761-1.43 4.691-1.478l-0.277-4.229c-0 0-3.491-0.235-6.492 1.996z"></path>
<path fill="#edb315" style="fill: var(--color23, #edb315)" d="M21.577 2.433l-1.816 3.848c0 0 2.75 1.451 3.899 3.014l3.273-2.663c-0 0-1.818-3.012-5.356-4.2z"></path>
<path fill="#f01717" style="fill: var(--color22, #f01717)" d="M29.901 11.865l-4.134 0.903c0 0 0.54 3.080 0.014 4.952l4.092 0.984c0 0 1.255-3.29 0.027-6.838z"></path>
<path fill="#f01717" style="fill: var(--color22, #f01717)" d="M27.802 24.388l-3.449-2.467c0 0-1.893 2.479-3.619 3.35l2.038 3.708c0-0 3.258-1.285 5.030-4.591z"></path>
<path fill="#edb315" style="fill: var(--color23, #edb315)" d="M16.137 30.969l-0.069-4.261c0 0-3.104-0.070-4.822-0.956l-1.759 3.85c-0 0 2.957 1.885 6.65 1.366z"></path>
<path fill="#f01717" style="fill: var(--color22, #f01717)" d="M4.87 25.691l3.049-2.954c0 0-2.064-2.336-2.591-4.208l-3.996 1.326c0 0 0.645 3.465 3.538 5.836z"></path>
<path fill="#f01717" style="fill: var(--color22, #f01717)" d="M1.332 13.665l4.134 0.903c0 0 0.774-3.029 2.022-4.513l-3.321-2.603c0 0-2.495 2.471-2.835 6.213z"></path>
<path fill="#fff" style="fill: var(--color11, #fff)" d="M15.689 1.883c-7.686 0-13.917 6.278-13.917 14.022s6.231 14.022 13.917 14.022c7.686 0 13.917-6.278 13.917-14.022s-6.231-14.022-13.917-14.022zM0.111 15.905c0-8.668 6.974-15.695 15.578-15.695s15.578 7.027 15.578 15.695-6.974 15.695-15.578 15.695c-8.604 0-15.578-7.027-15.578-15.695z"></path>
<path fill="#fff" style="fill: var(--color11, #fff)" d="M15.689 6.143c-5.351 0-9.689 4.371-9.689 9.762s4.338 9.762 9.689 9.762 9.689-4.371 9.689-9.762c0-5.392-4.338-9.762-9.689-9.762zM4.339 15.905c0-6.315 5.081-11.435 11.35-11.435s11.35 5.12 11.35 11.435-5.081 11.435-11.35 11.435c-6.268 0-11.35-5.12-11.35-11.435z"></path>
</symbol>
<symbol id="menu" viewBox="0 0 32 32">
<path fill="#2f7ef3" style="fill: var(--color1, #2f7ef3)" d="M5.333 24c-0.378 0-0.694-0.128-0.95-0.383s-0.383-0.572-0.383-0.95c0-0.378 0.128-0.695 0.383-0.95s0.572-0.383 0.95-0.383h21.333c0.378 0 0.694 0.128 0.95 0.383s0.383 0.572 0.383 0.95c0 0.378-0.128 0.694-0.383 0.95s-0.572 0.383-0.95 0.383h-21.333zM5.333 17.333c-0.378 0-0.694-0.128-0.95-0.383s-0.383-0.572-0.383-0.95c0-0.378 0.128-0.694 0.383-0.95s0.572-0.383 0.95-0.383h21.333c0.378 0 0.694 0.128 0.95 0.383s0.383 0.572 0.383 0.95-0.128 0.694-0.383 0.95c-0.256 0.256-0.572 0.383-0.95 0.383h-21.333zM5.333 10.667c-0.378 0-0.694-0.128-0.95-0.383s-0.383-0.572-0.383-0.95 0.128-0.694 0.383-0.95c0.256-0.256 0.572-0.383 0.95-0.383h21.333c0.378 0 0.694 0.128 0.95 0.383s0.383 0.572 0.383 0.95-0.128 0.694-0.383 0.95c-0.256 0.256-0.572 0.383-0.95 0.383h-21.333z"></path>
</symbol>
<symbol id="Minus" viewBox="0 0 32 32">
<path fill="#2f7ef3" style="fill: var(--color1, #2f7ef3)" d="M16.467 5.333c-6.149 0-11.133 4.985-11.133 11.133s4.985 11.133 11.133 11.133c6.149 0 11.133-4.985 11.133-11.133s-4.985-11.133-11.133-11.133zM16.467 7.358c5.031 0 9.109 4.078 9.109 9.109s-4.078 9.109-9.109 9.109c-5.031 0-9.109-4.078-9.109-9.109s4.078-9.109 9.109-9.109zM12.418 15.455c-0.559 0-1.012 0.453-1.012 1.012s0.453 1.012 1.012 1.012h8.097c0.559 0 1.012-0.453 1.012-1.012s-0.453-1.012-1.012-1.012h-8.097z"></path>
</symbol>
<symbol id="monetization_on" viewBox="0 0 33 32">
<path fill="#2f7ef3" style="fill: var(--color1, #2f7ef3)" d="M11.752 19.667c0.311 1.067 0.794 1.928 1.45 2.583s1.506 1.106 2.55 1.35v0.567c0 0.311 0.117 0.583 0.35 0.817s0.506 0.35 0.817 0.35c0.311 0 0.583-0.117 0.817-0.35s0.35-0.506 0.35-0.817v-0.5c1.111-0.2 2.067-0.633 2.867-1.3s1.2-1.656 1.2-2.967c0-0.933-0.267-1.789-0.8-2.567s-1.6-1.456-3.2-2.033c-1.333-0.444-2.256-0.833-2.767-1.167s-0.767-0.789-0.767-1.367c0-0.578 0.206-1.033 0.617-1.367s1.006-0.5 1.783-0.5c0.711 0 1.267 0.172 1.667 0.517s0.689 0.772 0.867 1.283l2.133-0.867c-0.244-0.778-0.694-1.456-1.35-2.033s-1.383-0.9-2.183-0.967v-0.5c0-0.311-0.117-0.583-0.35-0.817s-0.506-0.35-0.817-0.35c-0.311 0-0.583 0.117-0.817 0.35s-0.35 0.506-0.35 0.817v0.5c-1.111 0.244-1.978 0.733-2.6 1.467s-0.933 1.556-0.933 2.467c0 1.044 0.306 1.889 0.917 2.533s1.572 1.2 2.883 1.667c1.4 0.511 2.372 0.967 2.917 1.367s0.817 0.922 0.817 1.567c0 0.733-0.261 1.272-0.783 1.617s-1.15 0.517-1.883 0.517c-0.733 0-1.383-0.228-1.95-0.683s-0.983-1.139-1.25-2.050l-2.2 0.867zM16.952 29.333c-1.844 0-3.578-0.35-5.2-1.050s-3.033-1.65-4.233-2.85-2.15-2.611-2.85-4.233c-0.7-1.622-1.050-3.356-1.050-5.2s0.35-3.578 1.050-5.2c0.7-1.622 1.65-3.033 2.85-4.233s2.611-2.15 4.233-2.85c1.622-0.7 3.356-1.050 5.2-1.050s3.578 0.35 5.2 1.050c1.622 0.7 3.033 1.65 4.233 2.85s2.15 2.611 2.85 4.233c0.7 1.622 1.050 3.356 1.050 5.2s-0.35 3.578-1.050 5.2c-0.7 1.622-1.65 3.033-2.85 4.233s-2.611 2.15-4.233 2.85c-1.622 0.7-3.356 1.050-5.2 1.050zM16.952 26.667c2.978 0 5.5-1.033 7.567-3.1s3.1-4.589 3.1-7.567c0-2.978-1.033-5.5-3.1-7.567s-4.589-3.1-7.567-3.1c-2.978 0-5.5 1.033-7.567 3.1s-3.1 4.589-3.1 7.567c0 2.978 1.033 5.5 3.1 7.567s4.589 3.1 7.567 3.1z"></path>
</symbol>
<symbol id="Property-33" viewBox="0 0 34 32">
<path fill="#2f7ef3" style="fill: var(--color1, #2f7ef3)" d="M24.333 26.667l-0.542 0.813c-0.494 0.742-1.327 1.187-2.219 1.187h-8.906c-3.498 0-6.333-2.835-6.333-6.333v-12.906c0-0.891 0.445-1.724 1.187-2.219l0.813-0.542v15.667c0 2.393 1.94 4.333 4.333 4.333h11.667z"></path>
<path fill="#2f7ef3" style="fill: var(--color1, #2f7ef3)" d="M24 25.333h-10.667c-2.022 0-3.667-1.645-3.667-3.667v-14.667c0-2.022 1.645-3.667 3.667-3.667h10.667c2.022 0 3.667 1.645 3.667 3.667v14.667c0 2.022-1.645 3.667-3.667 3.667z"></path>
</symbol>
<symbol id="schedule" viewBox="0 0 32 32">
<path fill="#686e80" style="fill: var(--color2, #686e80)" d="M17.333 15.467v-4.8c0-0.378-0.128-0.694-0.383-0.95s-0.572-0.383-0.95-0.383c-0.378 0-0.694 0.128-0.95 0.383s-0.383 0.572-0.383 0.95v5.3c0 0.178 0.033 0.35 0.1 0.517s0.167 0.317 0.3 0.45l4.4 4.4c0.244 0.245 0.556 0.367 0.933 0.367s0.689-0.122 0.933-0.367c0.244-0.244 0.367-0.555 0.367-0.933s-0.122-0.689-0.367-0.933l-4-4zM16 29.333c-1.844 0-3.578-0.35-5.2-1.050s-3.033-1.65-4.233-2.85c-1.2-1.2-2.15-2.611-2.85-4.233s-1.050-3.356-1.050-5.2 0.35-3.578 1.050-5.2c0.7-1.622 1.65-3.033 2.85-4.233s2.611-2.15 4.233-2.85c1.622-0.7 3.356-1.050 5.2-1.050s3.578 0.35 5.2 1.050c1.622 0.7 3.033 1.65 4.233 2.85s2.15 2.611 2.85 4.233c0.7 1.622 1.050 3.356 1.050 5.2s-0.35 3.578-1.050 5.2c-0.7 1.622-1.65 3.033-2.85 4.233s-2.611 2.15-4.233 2.85c-1.622 0.7-3.355 1.050-5.2 1.050z"></path>
</symbol>
<symbol id="Star" viewBox="0 0 32 32">
<path fill="#ffd058" style="fill: var(--color24, #ffd058)" d="M16.882 3.746c-0.166-0.335-0.508-0.546-0.882-0.546s-0.715 0.212-0.882 0.546l-3.421 6.884-7.653 1.104c-0.372 0.054-0.681 0.314-0.796 0.671s-0.018 0.749 0.252 1.011l5.534 5.357-1.306 7.562c-0.064 0.369 0.087 0.742 0.39 0.963s0.704 0.251 1.036 0.077l6.847-3.575 6.847 3.575c0.332 0.173 0.734 0.143 1.036-0.077s0.454-0.594 0.39-0.963l-1.306-7.562 5.534-5.357c0.27-0.261 0.368-0.653 0.252-1.011s-0.424-0.618-0.796-0.671l-7.653-1.104-3.421-6.884z"></path>
</symbol>
<symbol id="Vector" viewBox="0 0 32 32">
<path fill="#2f7ef3" style="fill: var(--color1, #2f7ef3)" d="M15.718 0c-8.68 0-15.718 7.037-15.718 15.718s7.037 15.718 15.718 15.718c8.68 0 15.718-7.037 15.718-15.718s-7.037-15.718-15.718-15.718zM15.718 2.858c7.102 0 12.86 5.758 12.86 12.86s-5.758 12.86-12.86 12.86c-7.102 0-12.86-5.758-12.86-12.86s5.758-12.86 12.86-12.86zM15.718 9.288c-0.789 0-1.429 0.64-1.429 1.429v3.572h-3.572c-0.789 0-1.429 0.639-1.429 1.429s0.64 1.429 1.429 1.429h3.572v3.572c0 0.789 0.639 1.429 1.429 1.429s1.429-0.64 1.429-1.429v-3.572h3.572c0.789 0 1.429-0.639 1.429-1.429s-0.64-1.429-1.429-1.429h-3.572v-3.572c0-0.789-0.639-1.429-1.429-1.429z"></path>
</symbol>
<symbol id="author" viewBox="0 0 29 32">
<path fill="#2f7ef3" style="fill: var(--color1, #2f7ef3)" d="M0 14.683c0-0.171 0-0.344 0-0.515 0.136-0.325 0.361-0.573 0.647-0.779 0.325-0.235 0.638-0.486 0.944-0.745 0.584-0.495 0.805-1.12 0.614-1.87-0.123-0.481-0.272-0.955-0.396-1.435-0.167-0.642 0.158-1.192 0.798-1.364 0.498-0.134 1.002-0.243 1.493-0.397 0.684-0.216 1.11-0.687 1.239-1.4 0.083-0.46 0.149-0.923 0.214-1.386 0.11-0.792 0.62-1.168 1.406-1.031 0.442 0.077 0.883 0.15 1.326 0.223 0.793 0.129 1.4-0.168 1.839-0.823 0.266-0.397 0.507-0.808 0.77-1.207 0.381-0.579 0.983-0.707 1.565-0.334 0.41 0.263 0.807 0.546 1.219 0.805 0.652 0.409 1.316 0.412 1.97 0.006 0.397-0.247 0.78-0.516 1.171-0.774 0.639-0.422 1.233-0.303 1.648 0.335 0.265 0.408 0.508 0.832 0.787 1.229 0.426 0.605 1.014 0.878 1.758 0.768 0.491-0.073 0.977-0.175 1.468-0.242 0.713-0.097 1.203 0.293 1.3 1.004 0.065 0.472 0.131 0.945 0.216 1.414 0.136 0.749 0.583 1.226 1.311 1.433 0.459 0.131 0.923 0.238 1.383 0.364 0.706 0.194 1.011 0.738 0.816 1.449-0.123 0.451-0.257 0.899-0.374 1.351-0.198 0.762 0.028 1.393 0.625 1.89 0.359 0.299 0.733 0.581 1.098 0.874 0.572 0.456 0.638 1.082 0.172 1.654-0.283 0.348-0.57 0.693-0.858 1.037-0.524 0.625-0.599 1.379-0.211 2.103 0.211 0.396 0.419 0.793 0.624 1.192 0.319 0.621 0.13 1.226-0.49 1.546-0.433 0.224-0.872 0.433-1.306 0.652-0.681 0.343-1.059 1.057-0.984 1.818 0.044 0.446 0.073 0.894 0.089 1.342 0.026 0.712-0.41 1.171-1.125 1.204-0.467 0.021-0.934 0.042-1.402 0.058-0.714 0.024-1.345 0.474-1.6 1.147-0.168 0.446-0.331 0.895-0.502 1.341-0.265 0.691-0.826 0.942-1.518 0.677-0.463-0.178-0.917-0.381-1.386-0.541-0.681-0.23-1.302-0.101-1.825 0.401-0.345 0.33-0.67 0.68-1.007 1.018-0.549 0.551-1.161 0.554-1.704 0.008-0.323-0.325-0.642-0.654-0.966-0.978-0.566-0.563-1.23-0.694-1.973-0.418-0.438 0.162-0.868 0.348-1.305 0.514-0.676 0.257-1.241 0.005-1.499-0.669-0.175-0.454-0.339-0.913-0.512-1.367-0.25-0.657-0.884-1.108-1.581-1.132-0.477-0.017-0.954-0.036-1.43-0.060-0.697-0.034-1.135-0.498-1.111-1.19 0.016-0.448 0.044-0.896 0.089-1.342 0.077-0.776-0.296-1.485-0.995-1.84-0.434-0.22-0.873-0.431-1.306-0.653-0.593-0.303-0.79-0.9-0.492-1.498 0.204-0.41 0.418-0.815 0.633-1.22 0.394-0.74 0.311-1.481-0.214-2.131-0.4-0.493-0.87-0.936-1.157-1.518zM14.669 6.546c-5.1-0.048-9.498 4.077-9.494 9.469 0.005 5.305 4.215 9.467 9.458 9.485 5.311 0.018 9.512-4.188 9.521-9.478 0.011-5.39-4.399-9.534-9.486-9.476z"></path>
<path fill="#2f7ef3" style="fill: var(--color1, #2f7ef3)" d="M14.669 6.546c5.086-0.058 9.496 4.087 9.486 9.476-0.010 5.289-4.211 9.495-9.521 9.478-5.242-0.017-9.453-4.178-9.458-9.485-0.005-5.393 4.394-9.517 9.494-9.469zM20.011 13.511c-0.005-0.090-0.067-0.127-0.113-0.173-0.302-0.305-0.618-0.599-0.906-0.916-0.161-0.176-0.252-0.173-0.422-0.002-1.762 1.775-3.535 3.539-5.298 5.314-0.152 0.153-0.23 0.152-0.38-0.001-0.714-0.73-1.445-1.445-2.16-2.174-0.141-0.143-0.226-0.145-0.363 0.002-0.293 0.313-0.597 0.618-0.911 0.911-0.149 0.139-0.139 0.223 0.002 0.362 1.153 1.142 2.301 2.29 3.442 3.443 0.142 0.144 0.222 0.139 0.362-0.002 2.203-2.212 4.411-4.418 6.618-6.625 0.048-0.047 0.090-0.098 0.128-0.14z"></path>
<path fill="#fff" style="fill: var(--color2, #fff)" d="M20.011 13.511c-0.038 0.042-0.080 0.093-0.127 0.139-2.207 2.208-4.415 4.414-6.618 6.625-0.14 0.141-0.22 0.145-0.362 0.002-1.142-1.153-2.29-2.301-3.442-3.443-0.141-0.14-0.151-0.224-0.002-0.362 0.314-0.293 0.618-0.598 0.911-0.911 0.137-0.146 0.222-0.145 0.363-0.002 0.716 0.729 1.446 1.443 2.16 2.173 0.149 0.153 0.228 0.154 0.38 0.001 1.763-1.775 3.536-3.538 5.298-5.314 0.17-0.171 0.261-0.175 0.422 0.002 0.289 0.318 0.604 0.611 0.906 0.916 0.045 0.047 0.106 0.084 0.112 0.174z"></path>
</symbol>
</defs>
</svg>
